<svg width="923" height="515" viewBox="0 0 923 515" fill="none" xmlns="http://www.w3.org/2000/svg">
<circle cx="462" cy="66" r="63" stroke="#ED8E00" stroke-width="6"/>
<circle cx="330" cy="449" r="63" stroke="#ED8E00" stroke-width="6"/>
<circle cx="66" cy="449" r="63" stroke="#ED8E00" stroke-width="6"/>
<circle cx="198" cy="251" r="63" stroke="#ED8E00" stroke-width="6"/>
<path d="M406 101L254 217" stroke="#ED8E00" stroke-width="6"/>
<path d="M155.733 301L82 386" stroke="#ED8E00" stroke-width="6"/>
<path d="M317.366 386L280.5 343.5L243.634 301" stroke="#ED8E00" stroke-width="6"/>
<circle cx="66" cy="66" r="63" transform="matrix(-1 0 0 1 658.762 383)" stroke="#ED8E00" stroke-width="6"/>
<circle cx="66" cy="66" r="63" transform="matrix(-1 0 0 1 922.762 383)" stroke="#ED8E00" stroke-width="6"/>
<circle cx="66" cy="66" r="63" transform="matrix(-1 0 0 1 790.762 185)" stroke="#ED8E00" stroke-width="6"/>
<path d="M516.762 101L668.762 217" stroke="#ED8E00" stroke-width="6"/>
<path d="M767.03 301L840.762 386" stroke="#ED8E00" stroke-width="6"/>
<path d="M605.396 386L642.262 343.5L679.129 301" stroke="#ED8E00" stroke-width="6"/>
</svg>
