<svg width="666" height="725" viewBox="0 0 666 725" fill="none" xmlns="http://www.w3.org/2000/svg">
<path d="M7.64 93.688C7.192 93.688 6.456 93.528 5.432 93.208C4.344 92.888 3.352 92.472 2.456 91.96C1.496 91.448 1.016 90.936 1.016 90.424C1.016 90.296 1.144 90.232 1.4 90.232C1.656 90.36 1.912 90.424 2.168 90.424C2.296 90.424 2.488 90.36 2.744 90.232C2.488 89.848 2.36 89.464 2.36 89.08C2.36 88.76 2.456 88.568 2.648 88.504L1.784 86.68C1.656 86.36 1.336 85.88 0.823999 85.24C0.311998 84.6 0.0559978 84.152 0.0559978 83.896C0.0559978 83.512 0.0879984 83.224 0.151999 83.032C1.496 84.888 2.68 86.36 3.704 87.448C4.664 88.536 5.816 89.304 7.16 89.752C8.504 90.264 10.392 90.52 12.824 90.52C15.192 90.52 17.496 89.528 19.736 87.544C21.912 85.624 23.992 83.128 25.976 80.056C27.896 77.048 29.656 73.816 31.256 70.36C32.856 66.904 34.232 63.672 35.384 60.664C36.536 57.592 37.432 55.16 38.072 53.368C39.096 50.424 40.056 47.48 40.952 44.536C41.912 41.592 42.872 38.648 43.832 35.704L38.648 35.992C38.584 35.928 38.552 35.8 38.552 35.608C38.552 35.224 38.808 34.776 39.32 34.264C39.832 33.752 40.408 33.336 41.048 33.016C41.688 32.632 42.168 32.44 42.488 32.44H44.984C45.816 30.072 46.808 27.448 47.96 24.568C49.176 21.688 50.552 18.808 52.088 15.928C53.688 13.048 55.48 10.424 57.464 8.056C59.512 5.624 61.784 3.672 64.28 2.2C66.776 0.727999 69.528 -0.00800133 72.536 -0.00800133C72.856 -0.00800133 73.528 0.0559978 74.552 0.183996C75.64 0.311998 76.664 0.503998 77.624 0.759995C78.584 0.951996 79.064 1.272 79.064 1.72C79.064 1.848 79.032 1.912 78.968 1.912C78.968 1.912 78.936 1.912 78.872 1.912C78.872 1.912 78.872 1.88 78.872 1.816L78.2 1.72C78.456 2.296 78.584 3.064 78.584 4.024C78.584 4.472 78.52 5.048 78.392 5.752C78.328 6.392 78.2 6.904 78.008 7.288C77.944 7.416 77.72 7.832 77.336 8.536C76.952 9.176 76.568 9.784 76.184 10.36C75.8 10.936 75.576 11.224 75.512 11.224C75.448 11.16 75.416 11.096 75.416 11.032C75.416 10.968 75.64 10.52 76.088 9.688C76.536 8.792 76.76 7.896 76.76 7C76.76 5.528 76.12 4.312 74.84 3.352C73.624 2.328 72.344 1.816 71 1.816C69.208 1.816 67.384 2.616 65.528 4.216C63.736 5.816 62.008 7.896 60.344 10.456C58.68 13.016 57.144 15.704 55.736 18.52C54.392 21.336 53.208 24.024 52.184 26.584C51.16 29.08 50.392 31.064 49.88 32.536H54.776C55.672 32.536 56.536 32.536 57.368 32.536C58.2 32.472 59.032 32.408 59.864 32.344L60.056 32.44L59.768 32.728C59.576 32.92 59.096 33.208 58.328 33.592C57.56 33.976 56.792 34.36 56.024 34.744C55.256 35.064 54.712 35.256 54.392 35.32C53.56 35.448 52.632 35.512 51.608 35.512C50.648 35.512 49.72 35.512 48.824 35.512C48.184 37.624 47.48 39.736 46.712 41.848C46.008 43.896 45.304 45.944 44.6 47.992C43.064 52.344 41.496 56.664 39.896 60.952C38.36 65.24 36.536 69.336 34.424 73.24C32.248 77.208 29.528 80.952 26.264 84.472C23.896 87.032 21.112 89.208 17.912 91C14.648 92.792 11.224 93.688 7.64 93.688ZM70.2358 67.288C69.0838 67.288 68.3158 66.968 67.9318 66.328C67.5478 65.624 67.3558 64.76 67.3558 63.736C67.3558 62.072 67.6118 60.216 68.1238 58.168C68.6998 56.056 69.2118 54.2 69.6598 52.6C67.9958 55.16 66.0758 57.688 63.8998 60.184C61.7238 62.68 59.2278 64.664 56.4118 66.136C55.9638 66.392 55.4518 66.648 54.8758 66.904C54.2998 67.096 53.7558 67.192 53.2438 67.192C52.3478 67.192 51.7398 66.872 51.4198 66.232C51.1638 65.592 51.0358 64.92 51.0358 64.216V63.832C51.0358 62.808 51.2278 61.784 51.6118 60.76C51.9958 59.672 52.3478 58.648 52.6678 57.688C53.1798 56.216 53.7878 54.392 54.4918 52.216C55.2598 49.976 55.9318 47.736 56.5078 45.496C57.1478 43.256 57.4678 41.432 57.4678 40.024C57.4678 39.448 57.3718 38.904 57.1797 38.392C57.0518 37.88 56.6358 37.592 55.9318 37.528C55.9318 37.528 55.8678 37.528 55.7398 37.528C55.6758 37.528 55.6438 37.496 55.6438 37.432C55.6438 37.24 55.9638 37.048 56.6038 36.856C57.3078 36.6 58.1398 36.344 59.0998 36.088C60.0598 35.832 60.9558 35.64 61.7878 35.512C62.6198 35.32 63.1638 35.224 63.4198 35.224C63.5478 35.224 63.7718 35.256 64.0918 35.32C64.4758 35.384 64.6678 35.576 64.6678 35.896C64.6678 36.024 64.6358 36.12 64.5718 36.184C63.9318 37.72 63.1958 39.544 62.3638 41.656C61.5318 43.768 60.6998 46.008 59.8678 48.376C59.0998 50.68 58.4598 52.952 57.9478 55.192C57.4358 57.368 57.1797 59.32 57.1797 61.048C57.1797 61.368 57.2438 61.688 57.3718 62.008C57.4998 62.328 57.7558 62.488 58.1398 62.488C58.8438 62.488 59.7078 62.072 60.7318 61.24C61.8198 60.408 62.5878 59.768 63.0358 59.32C65.4038 56.824 67.5478 53.784 69.4678 50.2C71.3878 46.616 72.8598 43.192 73.8838 39.928C74.2038 38.968 74.5238 38.296 74.8438 37.912C75.1638 37.464 75.7398 36.92 76.5718 36.28C77.5958 35.576 78.7158 34.936 79.9318 34.36C81.2118 33.784 82.4918 33.496 83.7718 33.496C83.8998 33.496 84.0598 33.592 84.2518 33.784C84.4438 33.912 84.5398 34.072 84.5398 34.264C84.5398 34.392 84.4438 34.488 84.2518 34.552C84.1238 34.552 83.9958 34.552 83.8678 34.552C83.0358 34.552 82.1718 35.064 81.2758 36.088C80.3798 37.112 79.5158 38.424 78.6838 40.024C77.8518 41.624 77.0838 43.288 76.3798 45.016C75.7398 46.744 75.1638 48.344 74.6518 49.816C74.2038 51.224 73.8838 52.28 73.6918 52.984C73.4358 54.2 73.1478 55.416 72.8278 56.632C72.5718 57.848 72.4438 59.096 72.4438 60.376C72.4438 60.888 72.5078 61.56 72.6358 62.392C72.8278 63.16 73.3078 63.544 74.0758 63.544C74.5238 63.544 74.9718 63.384 75.4198 63.064C76.8278 62.232 78.1718 61.112 79.4518 59.704C80.7318 58.232 81.9158 56.664 83.0038 55C84.0918 53.272 84.9558 51.704 85.5958 50.296C85.7238 50.36 85.7878 50.488 85.7878 50.68C85.7878 51.192 85.4358 52.024 84.7318 53.176C84.0918 54.264 83.4198 55.32 82.7158 56.344C82.0758 57.304 81.7238 57.88 81.6598 58.072C81.5958 58.52 81.4998 58.904 81.3718 59.224C81.3078 59.48 81.1798 59.832 80.9878 60.28C80.2198 61.112 79.1958 62.072 77.9158 63.16C76.6998 64.248 75.4198 65.208 74.0758 66.04C72.7318 66.872 71.4518 67.288 70.2358 67.288ZM79.004 68.248C78.94 68.248 78.908 68.216 78.908 68.152C78.908 67.896 79.036 67.64 79.292 67.384C79.484 67.128 79.612 66.936 79.676 66.808C80.124 66.104 80.668 64.92 81.308 63.256C81.884 61.528 82.46 59.608 83.036 57.496C83.676 55.32 84.252 53.144 84.764 50.968C85.34 48.728 85.852 46.68 86.3 44.824C86.748 42.968 87.068 41.56 87.26 40.6C87.388 40.088 87.516 39.416 87.644 38.584C87.772 37.752 87.964 36.92 88.22 36.088C88.476 35.256 88.764 34.712 89.084 34.456C89.724 33.944 90.588 33.496 91.676 33.112C92.828 32.728 94.012 32.44 95.228 32.248C96.444 31.992 97.436 31.864 98.204 31.864C98.332 31.864 98.492 31.928 98.684 32.056C98.876 32.184 99.004 32.312 99.068 32.44V32.728C99.068 32.92 99.004 33.016 98.876 33.016C98.748 32.952 98.62 32.92 98.492 32.92C97.084 32.92 95.836 33.72 94.748 35.32C93.66 36.856 92.732 38.776 91.964 41.08C91.196 43.32 90.556 45.496 90.044 47.608C89.532 49.72 89.148 51.32 88.892 52.408C90.94 48.888 93.276 45.528 95.9 42.328C98.588 39.064 101.724 36.44 105.308 34.456C105.756 34.2 106.268 33.944 106.844 33.688C107.42 33.368 107.932 33.208 108.38 33.208C109.212 33.208 109.724 33.592 109.916 34.36C110.108 35.064 110.204 35.736 110.204 36.376C110.204 37.208 109.916 38.424 109.34 40.024C108.764 41.624 108.092 43.224 107.324 44.824C106.62 46.36 106.076 47.576 105.692 48.472C105.308 49.496 104.86 50.808 104.348 52.408C103.836 54.008 103.388 55.608 103.004 57.208C102.62 58.808 102.428 60.152 102.428 61.24C102.428 61.688 102.492 62.2 102.62 62.776C102.748 63.352 103.1 63.64 103.676 63.64C103.996 63.64 104.252 63.576 104.444 63.448C104.7 63.32 104.956 63.192 105.212 63.064C106.684 62.232 108.092 61.112 109.436 59.704C110.844 58.232 112.124 56.664 113.276 55C114.428 53.272 115.388 51.704 116.156 50.296C116.22 50.36 116.252 50.488 116.252 50.68C116.252 51.064 116.028 51.64 115.58 52.408C115.132 53.112 114.62 53.88 114.044 54.712C113.468 55.544 112.924 56.28 112.412 56.92C111.964 57.56 111.74 57.944 111.74 58.072C111.676 58.52 111.58 58.904 111.452 59.224C111.324 59.48 111.164 59.832 110.972 60.28C110.204 61.048 109.084 62.008 107.612 63.16C106.204 64.248 104.732 65.24 103.196 66.136C101.724 66.968 100.412 67.384 99.26 67.384C98.236 67.384 97.532 67 97.148 66.232C96.828 65.4 96.668 64.536 96.668 63.64C96.668 61.912 97.02 59.864 97.724 57.496C98.428 55.064 99.26 52.664 100.22 50.296C101.18 47.864 101.98 45.816 102.62 44.152C102.812 43.64 103.1 42.84 103.484 41.752C103.932 40.664 104.156 39.896 104.156 39.448C104.156 39.128 104.092 38.776 103.964 38.392C103.9 38.008 103.612 37.816 103.1 37.816C102.46 37.816 101.628 38.232 100.604 39.064C99.644 39.896 98.908 40.568 98.396 41.08C95.644 44.152 93.276 47.576 91.292 51.352C89.308 55.064 87.644 58.904 86.3 62.872C86.108 63.384 85.98 63.768 85.916 64.024C85.916 64.216 85.66 64.472 85.148 64.792C84.956 64.92 84.348 65.272 83.324 65.848C82.364 66.424 81.436 66.968 80.54 67.48C79.58 67.992 79.068 68.248 79.004 68.248ZM114.954 67C114.25 67 113.642 66.68 113.13 66.04C112.682 65.4 112.33 64.664 112.074 63.832C111.882 63 111.786 62.296 111.786 61.72C111.786 58.904 112.362 55.896 113.514 52.696C114.73 49.432 116.266 46.328 118.122 43.384C119.978 40.376 121.898 37.944 123.882 36.088C125.034 35 126.346 34.2 127.818 33.688C129.354 33.176 130.89 32.92 132.426 32.92C133.45 32.92 134.538 33.048 135.69 33.304C136.906 33.56 137.93 34.008 138.762 34.648C138.762 34.712 138.762 34.776 138.762 34.84C138.826 34.84 138.858 34.872 138.858 34.936C138.858 35.064 138.826 35.128 138.762 35.128H138.666L137.994 34.936C138.186 35.512 138.282 36.088 138.282 36.664C138.282 37.24 138.122 38.104 137.802 39.256C137.482 40.344 137.098 41.4 136.65 42.424C136.202 43.448 135.722 44.12 135.21 44.44C135.21 44.44 135.146 44.44 135.018 44.44C134.826 44.44 134.73 44.28 134.73 43.96C134.73 43.832 134.794 43.704 134.922 43.576C135.05 43.448 135.146 43.32 135.21 43.192C135.53 42.488 135.754 41.784 135.882 41.08C136.074 40.376 136.17 39.672 136.17 38.968C136.17 37.88 135.914 36.856 135.402 35.896C134.89 34.936 133.994 34.456 132.714 34.456C131.562 34.456 130.346 34.968 129.066 35.992C127.786 37.016 126.762 37.944 125.994 38.776C124.714 40.248 123.402 42.264 122.058 44.824C120.778 47.32 119.69 49.912 118.794 52.6C117.898 55.288 117.45 57.624 117.45 59.608C117.45 60.504 117.61 61.368 117.93 62.2C118.314 62.968 119.05 63.352 120.138 63.352C121.738 63.352 123.434 62.808 125.226 61.72C127.018 60.568 128.81 59.192 130.602 57.592C132.394 55.928 134.026 54.296 135.498 52.696C137.034 51.032 138.282 49.656 139.242 48.568C140.266 47.416 140.842 46.84 140.97 46.84C141.162 46.84 141.258 47 141.258 47.32C141.258 47.448 141.226 47.576 141.162 47.704C141.162 47.832 141.13 47.96 141.066 48.088C139.466 50.2 137.738 52.376 135.882 54.616C134.09 56.792 132.106 58.84 129.93 60.76C127.818 62.616 125.514 64.12 123.018 65.272C120.522 66.424 117.834 67 114.954 67ZM139.139 67.288C138.115 67.288 137.411 67.032 137.027 66.52C136.643 66.008 136.451 65.272 136.451 64.312C136.451 62.648 136.835 60.568 137.603 58.072C138.371 55.512 139.331 52.824 140.483 50.008C141.635 47.128 142.755 44.408 143.843 41.848C144.995 39.224 145.923 37.08 146.627 35.416C145.795 35.48 144.963 35.512 144.131 35.512C143.299 35.512 142.435 35.544 141.539 35.608C141.411 35.48 141.347 35.352 141.347 35.224C141.347 34.84 141.603 34.392 142.115 33.88C142.627 33.368 143.203 32.952 143.843 32.632C144.547 32.248 145.059 32.056 145.379 32.056H148.067C148.707 30.52 149.347 28.984 149.987 27.448C150.691 25.912 151.331 24.376 151.907 22.84C152.227 22.008 152.579 21.336 152.963 20.824C153.411 20.248 154.019 19.704 154.787 19.192C155.875 18.488 157.219 17.912 158.819 17.464C160.419 17.016 161.827 16.792 163.043 16.792C163.171 16.792 163.299 16.856 163.427 16.984C163.619 17.112 163.747 17.208 163.811 17.272V17.656C163.811 17.848 163.715 17.912 163.523 17.848C163.395 17.784 163.267 17.752 163.139 17.752C162.371 17.752 161.475 18.392 160.451 19.672C159.427 20.888 158.371 22.36 157.283 24.088C156.195 25.816 155.235 27.48 154.403 29.08C153.635 30.616 153.091 31.672 152.771 32.248H156.611C157.635 32.248 158.659 32.248 159.683 32.248C160.707 32.184 161.731 32.088 162.755 31.96L162.851 32.152C162.787 32.152 162.755 32.184 162.755 32.248C162.755 32.312 162.723 32.344 162.659 32.344C162.467 32.536 161.987 32.856 161.219 33.304C160.451 33.688 159.683 34.04 158.915 34.36C158.147 34.68 157.603 34.872 157.283 34.936C156.259 35.064 155.235 35.16 154.211 35.224C153.251 35.288 152.259 35.32 151.235 35.32C150.595 36.728 149.763 38.584 148.739 40.888C147.715 43.192 146.691 45.656 145.667 48.28C144.643 50.84 143.779 53.304 143.075 55.672C142.435 57.976 142.115 59.896 142.115 61.432C142.115 61.816 142.179 62.264 142.307 62.776C142.435 63.288 142.755 63.544 143.267 63.544C143.715 63.544 144.163 63.384 144.611 63.064C146.019 62.232 147.395 61.112 148.739 59.704C150.147 58.232 151.427 56.664 152.579 55C153.795 53.272 154.755 51.704 155.459 50.296C155.587 50.36 155.651 50.488 155.651 50.68C155.651 51.064 155.427 51.64 154.979 52.408C154.531 53.112 154.019 53.88 153.443 54.712C152.867 55.544 152.323 56.28 151.811 56.92C151.363 57.56 151.139 57.944 151.139 58.072C151.075 58.584 150.947 58.968 150.755 59.224C150.627 59.416 150.467 59.768 150.275 60.28C149.443 61.048 148.387 62.008 147.107 63.16C145.827 64.248 144.483 65.208 143.075 66.04C141.667 66.872 140.355 67.288 139.139 67.288ZM173.256 25.72C172.744 25.72 171.944 25.528 170.856 25.144C169.832 24.696 169.32 24.152 169.32 23.512C169.32 23.448 169.32 23.416 169.32 23.416C169.384 23.352 169.416 23.288 169.416 23.224C169.736 22.584 170.44 22.2 171.528 22.072C172.68 21.944 173.544 21.752 174.12 21.496C175.4 20.984 176.648 20.568 177.864 20.248C179.08 19.928 180.232 19.352 181.32 18.52C181.576 18.648 181.704 18.776 181.704 18.904C181.704 19.16 181.416 19.512 180.84 19.96C180.328 20.408 179.976 20.792 179.784 21.112C179.528 21.496 178.952 22.072 178.056 22.84C177.224 23.544 176.328 24.216 175.368 24.856C174.408 25.432 173.704 25.72 173.256 25.72ZM157.032 67.288C156.008 67.288 155.304 67.032 154.92 66.52C154.536 66.008 154.344 65.272 154.344 64.312C154.344 62.2 154.76 59.64 155.592 56.632C156.488 53.624 157.48 50.584 158.568 47.512C159.656 44.376 160.52 41.592 161.16 39.16C161.416 38.264 162.024 37.656 162.984 37.336C164.008 36.952 164.872 36.504 165.576 35.992C166.6 35.288 167.688 34.712 168.84 34.264C169.992 33.752 171.208 33.496 172.488 33.496C172.808 33.496 173 33.56 173.064 33.688C173.192 33.816 173.256 33.912 173.256 33.976C173.256 34.36 173.032 34.552 172.584 34.552C171.688 34.552 170.76 35.096 169.8 36.184C168.84 37.208 167.88 38.552 166.92 40.216C165.96 41.88 165.096 43.608 164.328 45.4C163.56 47.192 162.888 48.856 162.312 50.392C161.736 51.864 161.352 52.952 161.16 53.656C160.84 54.68 160.52 55.896 160.2 57.304C159.88 58.648 159.72 59.896 159.72 61.048C159.72 61.496 159.784 62.04 159.912 62.68C160.04 63.256 160.424 63.544 161.064 63.544C161.512 63.544 161.992 63.384 162.504 63.064C163.912 62.232 165.288 61.112 166.632 59.704C168.04 58.232 169.32 56.664 170.472 55C171.688 53.272 172.648 51.704 173.352 50.296C173.48 50.36 173.544 50.488 173.544 50.68C173.544 51.064 173.32 51.64 172.872 52.408C172.424 53.112 171.912 53.88 171.336 54.712C170.76 55.544 170.216 56.28 169.704 56.92C169.256 57.56 169.032 57.944 169.032 58.072C168.968 58.584 168.872 58.968 168.744 59.224C168.616 59.416 168.424 59.768 168.168 60.28C167.4 61.048 166.376 62.008 165.096 63.16C163.816 64.248 162.472 65.208 161.064 66.04C159.656 66.872 158.312 67.288 157.032 67.288ZM173.195 67.48C171.979 67.48 171.115 67.16 170.603 66.52C170.155 65.816 169.931 64.6 169.931 62.872C169.931 60.376 170.251 57.752 170.891 55C171.531 52.248 172.395 49.592 173.483 47.032C174.571 44.408 175.787 42.136 177.131 40.216C178.155 38.808 179.531 37.496 181.259 36.28C182.987 35.064 184.843 34.072 186.827 33.304C188.811 32.536 190.667 32.152 192.395 32.152C192.971 32.152 193.675 32.248 194.507 32.44C195.339 32.568 195.979 32.824 196.427 33.208C196.747 33.464 196.939 33.816 197.003 34.264C197.131 34.712 197.195 35.128 197.195 35.512C197.195 37.176 196.907 39.128 196.331 41.368C195.819 43.544 195.115 45.784 194.219 48.088C193.323 50.392 192.363 52.568 191.339 54.616C190.315 56.6 189.291 58.264 188.267 59.608C187.691 60.376 186.763 61.24 185.483 62.2C184.203 63.096 182.795 63.96 181.259 64.792C179.787 65.56 178.315 66.2 176.843 66.712C175.371 67.224 174.155 67.48 173.195 67.48ZM175.787 64.792C178.795 64.152 181.227 62.712 183.083 60.472C184.555 58.744 185.931 56.472 187.211 53.656C188.491 50.84 189.515 47.928 190.283 44.92C191.115 41.912 191.531 39.288 191.531 37.048C191.531 36.856 191.499 36.536 191.435 36.088C191.435 35.64 191.339 35.384 191.147 35.32C190.379 34.936 189.515 34.744 188.555 34.744C187.915 34.744 187.083 34.968 186.059 35.416C185.035 35.8 184.267 36.248 183.755 36.76C183.435 37.08 183.115 37.528 182.795 38.104C182.539 38.616 182.283 39.064 182.027 39.448C180.811 41.368 179.627 43.608 178.475 46.168C177.387 48.728 176.491 51.352 175.787 54.04C175.083 56.728 174.731 59.256 174.731 61.624C174.731 62.392 174.795 63.096 174.923 63.736C175.115 64.312 175.403 64.664 175.787 64.792ZM193.473 68.248C193.409 68.248 193.377 68.216 193.377 68.152C193.377 67.896 193.505 67.64 193.761 67.384C193.953 67.128 194.081 66.936 194.145 66.808C194.593 66.104 195.137 64.92 195.777 63.256C196.353 61.528 196.929 59.608 197.505 57.496C198.145 55.32 198.721 53.144 199.233 50.968C199.809 48.728 200.321 46.68 200.769 44.824C201.217 42.968 201.537 41.56 201.729 40.6C201.857 40.088 201.985 39.416 202.113 38.584C202.241 37.752 202.433 36.92 202.689 36.088C202.945 35.256 203.233 34.712 203.553 34.456C204.193 33.944 205.057 33.496 206.145 33.112C207.297 32.728 208.481 32.44 209.697 32.248C210.913 31.992 211.905 31.864 212.673 31.864C212.801 31.864 212.961 31.928 213.153 32.056C213.345 32.184 213.473 32.312 213.537 32.44V32.728C213.537 32.92 213.473 33.016 213.345 33.016C213.217 32.952 213.089 32.92 212.961 32.92C211.553 32.92 210.305 33.72 209.217 35.32C208.129 36.856 207.201 38.776 206.433 41.08C205.665 43.32 205.025 45.496 204.513 47.608C204.001 49.72 203.617 51.32 203.361 52.408C205.409 48.888 207.745 45.528 210.369 42.328C213.057 39.064 216.193 36.44 219.777 34.456C220.225 34.2 220.737 33.944 221.313 33.688C221.889 33.368 222.401 33.208 222.849 33.208C223.681 33.208 224.193 33.592 224.385 34.36C224.577 35.064 224.673 35.736 224.673 36.376C224.673 37.208 224.385 38.424 223.809 40.024C223.233 41.624 222.561 43.224 221.793 44.824C221.089 46.36 220.545 47.576 220.161 48.472C219.777 49.496 219.329 50.808 218.817 52.408C218.305 54.008 217.857 55.608 217.473 57.208C217.089 58.808 216.897 60.152 216.897 61.24C216.897 61.688 216.961 62.2 217.089 62.776C217.217 63.352 217.569 63.64 218.145 63.64C218.465 63.64 218.721 63.576 218.913 63.448C219.169 63.32 219.425 63.192 219.681 63.064C221.153 62.232 222.561 61.112 223.905 59.704C225.313 58.232 226.593 56.664 227.745 55C228.897 53.272 229.857 51.704 230.625 50.296C230.689 50.36 230.721 50.488 230.721 50.68C230.721 51.064 230.497 51.64 230.049 52.408C229.601 53.112 229.089 53.88 228.513 54.712C227.937 55.544 227.393 56.28 226.881 56.92C226.433 57.56 226.209 57.944 226.209 58.072C226.145 58.52 226.049 58.904 225.921 59.224C225.793 59.48 225.633 59.832 225.441 60.28C224.673 61.048 223.553 62.008 222.081 63.16C220.673 64.248 219.201 65.24 217.665 66.136C216.193 66.968 214.881 67.384 213.729 67.384C212.705 67.384 212.001 67 211.617 66.232C211.297 65.4 211.137 64.536 211.137 63.64C211.137 61.912 211.489 59.864 212.193 57.496C212.897 55.064 213.729 52.664 214.689 50.296C215.649 47.864 216.449 45.816 217.089 44.152C217.281 43.64 217.569 42.84 217.953 41.752C218.401 40.664 218.625 39.896 218.625 39.448C218.625 39.128 218.561 38.776 218.433 38.392C218.369 38.008 218.081 37.816 217.569 37.816C216.929 37.816 216.097 38.232 215.073 39.064C214.113 39.896 213.377 40.568 212.865 41.08C210.113 44.152 207.745 47.576 205.761 51.352C203.777 55.064 202.113 58.904 200.769 62.872C200.577 63.384 200.449 63.768 200.385 64.024C200.385 64.216 200.129 64.472 199.617 64.792C199.425 64.92 198.817 65.272 197.793 65.848C196.833 66.424 195.905 66.968 195.009 67.48C194.049 67.992 193.537 68.248 193.473 68.248ZM245.359 72.952C242.799 72.952 240.847 72.184 239.503 70.648C238.159 69.176 237.231 67.352 236.719 65.176C236.271 62.936 236.047 60.76 236.047 58.648C236.047 57.176 236.111 55.704 236.239 54.232C236.431 52.76 236.687 51.32 237.007 49.912C238.159 44.216 240.207 38.904 243.151 33.976C245.391 30.2 248.111 26.68 251.311 23.416C254.575 20.152 258.159 17.272 262.063 14.776C265.967 12.216 270.095 10.232 274.447 8.824C278.799 7.416 283.183 6.712 287.599 6.712C287.919 6.712 288.079 6.872 288.079 7.192C288.079 7.512 287.919 7.672 287.599 7.672C283.951 7.672 280.239 8.408 276.463 9.88C272.751 11.288 269.167 13.208 265.711 15.64C262.255 18.008 259.087 20.632 256.207 23.512C253.391 26.392 251.023 29.304 249.103 32.248C247.567 34.488 246.255 36.856 245.167 39.352C244.079 41.848 243.183 44.408 242.479 47.032C242.031 48.632 241.711 50.328 241.519 52.12C241.391 53.848 241.327 55.544 241.327 57.208C241.327 58.552 241.423 60.024 241.615 61.624C241.807 63.16 242.159 64.632 242.671 66.04C243.247 67.448 244.047 68.6 245.071 69.496C246.159 70.456 247.567 70.936 249.295 70.936C249.615 70.936 249.935 70.904 250.255 70.84C250.575 70.776 250.863 70.744 251.119 70.744C251.503 70.744 251.695 70.904 251.695 71.224C251.695 71.544 251.247 71.832 250.351 72.088C249.455 72.408 248.495 72.632 247.471 72.76C246.447 72.888 245.743 72.952 245.359 72.952ZM276.079 68.44C275.567 68.44 275.087 68.056 274.639 67.288C274.255 66.52 274.063 65.912 274.063 65.464C274.063 65.016 274.255 64.536 274.639 64.024C275.023 63.512 275.407 63.192 275.791 63.064C276.047 62.744 276.559 62.36 277.327 61.912C278.095 61.464 278.895 61.048 279.727 60.664C280.559 60.28 281.135 60.088 281.455 60.088C281.519 60.088 281.551 60.12 281.551 60.184C281.615 60.184 281.647 60.184 281.647 60.184L281.743 60.28C281.743 60.344 281.519 60.632 281.071 61.144C280.687 61.592 280.431 61.88 280.303 62.008C279.983 62.456 279.695 62.968 279.439 63.544C279.247 64.12 279.087 64.696 278.959 65.272C278.767 65.848 278.415 66.52 277.903 67.288C277.455 68.056 276.847 68.44 276.079 68.44ZM294.548 68.44C294.036 68.44 293.556 68.056 293.108 67.288C292.724 66.52 292.532 65.912 292.532 65.464C292.532 65.016 292.724 64.536 293.108 64.024C293.492 63.512 293.876 63.192 294.26 63.064C294.516 62.744 295.028 62.36 295.796 61.912C296.564 61.464 297.364 61.048 298.196 60.664C299.028 60.28 299.604 60.088 299.924 60.088C299.988 60.088 300.02 60.12 300.02 60.184C300.084 60.184 300.116 60.184 300.116 60.184L300.212 60.28C300.212 60.344 299.988 60.632 299.54 61.144C299.156 61.592 298.9 61.88 298.772 62.008C298.452 62.456 298.164 62.968 297.908 63.544C297.716 64.12 297.556 64.696 297.428 65.272C297.236 65.848 296.884 66.52 296.372 67.288C295.924 68.056 295.316 68.44 294.548 68.44ZM313.017 68.44C312.505 68.44 312.025 68.056 311.577 67.288C311.193 66.52 311.001 65.912 311.001 65.464C311.001 65.016 311.193 64.536 311.577 64.024C311.961 63.512 312.345 63.192 312.729 63.064C312.985 62.744 313.497 62.36 314.265 61.912C315.033 61.464 315.833 61.048 316.665 60.664C317.497 60.28 318.073 60.088 318.393 60.088C318.457 60.088 318.489 60.12 318.489 60.184C318.553 60.184 318.585 60.184 318.585 60.184L318.681 60.28C318.681 60.344 318.457 60.632 318.009 61.144C317.625 61.592 317.369 61.88 317.241 62.008C316.921 62.456 316.633 62.968 316.377 63.544C316.185 64.12 316.025 64.696 315.897 65.272C315.705 65.848 315.353 66.52 314.841 67.288C314.393 68.056 313.785 68.44 313.017 68.44ZM322.365 75.928C322.045 75.928 321.725 75.896 321.405 75.832C321.085 75.768 320.925 75.608 320.925 75.352C320.925 75.032 321.149 74.872 321.597 74.872L322.557 74.968C324.861 74.968 327.326 74.424 329.95 73.336C332.638 72.248 334.974 71.096 336.958 69.88C340.35 67.768 343.582 65.048 346.654 61.72C349.726 58.392 352.446 54.712 354.814 50.68C357.182 46.648 359.038 42.488 360.382 38.2C361.726 33.848 362.398 29.656 362.398 25.624C362.398 21.912 361.63 18.52 360.094 15.448C358.622 12.376 355.998 10.2 352.222 8.92C351.326 8.6 350.43 8.376 349.534 8.248C348.702 8.056 347.838 7.928 346.942 7.86399C346.622 7.86399 346.462 7.736 346.462 7.48C346.462 7.096 346.878 6.872 347.71 6.808C348.606 6.68 349.278 6.616 349.726 6.616C355.614 6.616 360.062 8.376 363.07 11.896C366.078 15.416 367.582 19.96 367.582 25.528C367.582 29.816 366.686 34.264 364.894 38.872C363.166 43.416 360.83 47.832 357.886 52.12C354.942 56.344 351.678 60.184 348.094 63.64C344.51 67.032 340.894 69.752 337.246 71.8C335.198 73.016 332.926 74.008 330.43 74.776C327.934 75.544 325.502 75.928 323.133 75.928H322.365ZM398.014 79.96C395.838 79.96 393.758 79.768 391.774 79.384C389.79 79 388.19 78.2 386.974 76.984C385.758 75.768 385.15 73.88 385.15 71.32C385.15 68.824 385.47 66.36 386.11 63.928C386.75 61.496 387.39 59.064 388.03 56.632C388.67 54.2 388.99 51.736 388.99 49.24C388.99 45.976 387.902 43.736 385.726 42.52C383.55 41.304 380.894 40.664 377.758 40.6L378.238 39.832C380.03 39.704 381.982 39.416 384.094 38.968C386.27 38.456 388.062 37.656 389.47 36.568C391.326 34.968 392.606 33.048 393.31 30.808C394.078 28.504 394.59 26.072 394.846 23.512C395.102 20.888 395.454 18.328 395.902 15.832C396.35 13.272 397.182 10.968 398.398 8.92C399.678 6.872 401.662 5.24 404.35 4.024C407.102 2.744 410.91 2.10399 415.774 2.10399C416.158 2.10399 416.35 2.296 416.35 2.68C416.35 3.064 416.094 3.256 415.582 3.256C412.126 3.256 409.374 3.736 407.326 4.696C405.342 5.592 403.838 6.872 402.814 8.536C401.79 10.136 401.022 11.96 400.51 14.008C399.998 16.056 399.55 18.232 399.166 20.536C398.782 22.776 398.238 25.016 397.534 27.256C396.254 31.16 394.174 34.328 391.294 36.76C388.414 39.128 385.214 40.28 381.694 40.216C384.51 40.472 386.91 41.464 388.894 43.192C390.942 44.856 391.966 47 391.966 49.624C391.966 53.272 391.614 56.856 390.91 60.376C390.206 63.832 389.854 67.352 389.854 70.936C389.854 73.24 390.27 74.936 391.102 76.024C391.998 77.176 393.022 77.912 394.174 78.232C395.326 78.616 396.382 78.872 397.342 79C398.302 79.128 398.91 79.352 399.166 79.672C399.102 79.8 398.91 79.864 398.59 79.864C398.334 79.928 398.142 79.96 398.014 79.96ZM80.765 222.688C80.317 222.688 79.581 222.528 78.557 222.208C77.469 221.888 76.477 221.472 75.581 220.96C74.621 220.448 74.141 219.936 74.141 219.424C74.141 219.296 74.269 219.232 74.525 219.232C74.781 219.36 75.037 219.424 75.293 219.424C75.421 219.424 75.613 219.36 75.869 219.232C75.613 218.848 75.485 218.464 75.485 218.08C75.485 217.76 75.581 217.568 75.773 217.504L74.909 215.68C74.781 215.36 74.461 214.88 73.949 214.24C73.437 213.6 73.181 213.152 73.181 212.896C73.181 212.512 73.213 212.224 73.277 212.032C74.621 213.888 75.805 215.36 76.829 216.448C77.789 217.536 78.941 218.304 80.285 218.752C81.629 219.264 83.517 219.52 85.949 219.52C88.317 219.52 90.621 218.528 92.861 216.544C95.037 214.624 97.117 212.128 99.101 209.056C101.021 206.048 102.781 202.816 104.381 199.36C105.981 195.904 107.357 192.672 108.509 189.664C109.661 186.592 110.557 184.16 111.197 182.368C112.221 179.424 113.181 176.48 114.077 173.536C115.037 170.592 115.997 167.648 116.957 164.704L111.773 164.992C111.709 164.928 111.677 164.8 111.677 164.608C111.677 164.224 111.933 163.776 112.445 163.264C112.957 162.752 113.533 162.336 114.173 162.016C114.813 161.632 115.293 161.44 115.613 161.44H118.109C118.941 159.072 119.933 156.448 121.085 153.568C122.301 150.688 123.677 147.808 125.213 144.928C126.813 142.048 128.605 139.424 130.589 137.056C132.637 134.624 134.909 132.672 137.405 131.2C139.901 129.728 142.653 128.992 145.661 128.992C145.981 128.992 146.653 129.056 147.677 129.184C148.765 129.312 149.789 129.504 150.749 129.76C151.709 129.952 152.189 130.272 152.189 130.72C152.189 130.848 152.157 130.912 152.093 130.912C152.093 130.912 152.061 130.912 151.997 130.912C151.997 130.912 151.997 130.88 151.997 130.816L151.325 130.72C151.581 131.296 151.709 132.064 151.709 133.024C151.709 133.472 151.645 134.048 151.517 134.752C151.453 135.392 151.325 135.904 151.133 136.288C151.069 136.416 150.845 136.832 150.461 137.536C150.077 138.176 149.693 138.784 149.309 139.36C148.925 139.936 148.701 140.224 148.637 140.224C148.573 140.16 148.541 140.096 148.541 140.032C148.541 139.968 148.765 139.52 149.213 138.688C149.661 137.792 149.885 136.896 149.885 136C149.885 134.528 149.245 133.312 147.965 132.352C146.749 131.328 145.469 130.816 144.125 130.816C142.333 130.816 140.509 131.616 138.653 133.216C136.861 134.816 135.133 136.896 133.469 139.456C131.805 142.016 130.269 144.704 128.861 147.52C127.517 150.336 126.333 153.024 125.309 155.584C124.285 158.08 123.517 160.064 123.005 161.536H127.901C128.797 161.536 129.661 161.536 130.493 161.536C131.325 161.472 132.157 161.408 132.989 161.344L133.181 161.44L132.893 161.728C132.701 161.92 132.221 162.208 131.453 162.592C130.685 162.976 129.917 163.36 129.149 163.744C128.381 164.064 127.837 164.256 127.517 164.32C126.685 164.448 125.757 164.512 124.733 164.512C123.773 164.512 122.845 164.512 121.949 164.512C121.309 166.624 120.605 168.736 119.837 170.848C119.133 172.896 118.429 174.944 117.725 176.992C116.189 181.344 114.621 185.664 113.021 189.952C111.485 194.24 109.661 198.336 107.549 202.24C105.373 206.208 102.653 209.952 99.389 213.472C97.021 216.032 94.237 218.208 91.037 220C87.773 221.792 84.349 222.688 80.765 222.688ZM126.883 196.48C125.667 196.48 124.803 196.16 124.291 195.52C123.843 194.816 123.619 193.6 123.619 191.872C123.619 189.376 123.939 186.752 124.579 184C125.219 181.248 126.083 178.592 127.171 176.032C128.259 173.408 129.475 171.136 130.819 169.216C131.843 167.808 133.219 166.496 134.947 165.28C136.675 164.064 138.531 163.072 140.515 162.304C142.499 161.536 144.355 161.152 146.083 161.152C146.659 161.152 147.363 161.248 148.195 161.44C149.027 161.568 149.667 161.824 150.115 162.208C150.435 162.464 150.627 162.816 150.691 163.264C150.819 163.712 150.883 164.128 150.883 164.512C150.883 166.176 150.595 168.128 150.019 170.368C149.507 172.544 148.803 174.784 147.906 177.088C147.01 179.392 146.051 181.568 145.027 183.616C144.003 185.6 142.979 187.264 141.955 188.608C141.379 189.376 140.451 190.24 139.171 191.2C137.891 192.096 136.483 192.96 134.947 193.792C133.475 194.56 132.003 195.2 130.531 195.712C129.059 196.224 127.843 196.48 126.883 196.48ZM129.475 193.792C132.483 193.152 134.915 191.712 136.771 189.472C138.243 187.744 139.619 185.472 140.899 182.656C142.179 179.84 143.203 176.928 143.971 173.92C144.803 170.912 145.219 168.288 145.219 166.048C145.219 165.856 145.187 165.536 145.123 165.088C145.123 164.64 145.027 164.384 144.835 164.32C144.067 163.936 143.203 163.744 142.243 163.744C141.603 163.744 140.771 163.968 139.747 164.416C138.723 164.8 137.955 165.248 137.443 165.76C137.123 166.08 136.803 166.528 136.483 167.104C136.227 167.616 135.971 168.064 135.715 168.448C134.499 170.368 133.315 172.608 132.163 175.168C131.075 177.728 130.179 180.352 129.475 183.04C128.771 185.728 128.419 188.256 128.419 190.624C128.419 191.392 128.483 192.096 128.611 192.736C128.803 193.312 129.091 193.664 129.475 193.792ZM147.256 197.248C147.128 197.248 147.064 197.216 147.064 197.152C147.064 196.896 147.192 196.64 147.448 196.384C147.64 196.192 147.8 196 147.928 195.808C148.504 194.848 149.144 193.216 149.848 190.912C150.616 188.544 151.352 185.952 152.056 183.136C152.824 180.32 153.496 177.696 154.072 175.264C154.712 172.768 155.16 170.88 155.416 169.6C155.544 169.088 155.672 168.416 155.8 167.584C155.992 166.752 156.216 165.92 156.472 165.088C156.728 164.256 157.016 163.712 157.336 163.456C157.912 162.944 158.776 162.496 159.928 162.112C161.08 161.728 162.232 161.44 163.384 161.248C164.6 160.992 165.592 160.864 166.36 160.864C166.488 160.864 166.648 160.928 166.84 161.056C167.032 161.184 167.16 161.312 167.224 161.44L167.32 161.728C167.256 161.92 167.16 162.016 167.032 162.016C166.904 161.952 166.776 161.92 166.648 161.92C165.432 161.92 164.312 162.624 163.288 164.032C162.264 165.376 161.368 167.04 160.6 169.024C159.832 171.008 159.16 172.928 158.584 174.784C158.072 176.576 157.72 177.92 157.528 178.816C158.168 177.344 159 175.68 160.024 173.824C161.112 171.904 162.36 170.08 163.768 168.352C165.176 166.56 166.712 165.088 168.376 163.936C170.04 162.72 171.8 162.112 173.656 162.112C173.912 162.112 174.328 162.176 174.904 162.304C175.544 162.368 176.12 162.528 176.632 162.784C177.208 162.976 177.496 163.232 177.496 163.552L177.4 163.648H177.304L176.728 163.456C176.92 163.904 177.048 164.352 177.112 164.8C177.176 165.248 177.208 165.696 177.208 166.144C177.208 166.528 177.08 167.36 176.824 168.64C176.632 169.92 176.344 171.136 175.96 172.288C175.64 173.376 175.288 173.92 174.904 173.92C174.648 173.92 174.52 173.824 174.52 173.632C174.52 173.312 174.616 172.8 174.808 172.096C175.064 171.328 175.192 170.624 175.192 169.984C175.192 168.832 174.904 167.904 174.328 167.2C173.752 166.496 172.888 166.144 171.736 166.144C169.816 166.144 167.96 166.976 166.168 168.64C164.376 170.24 162.744 172.256 161.272 174.688C159.8 177.056 158.552 179.456 157.528 181.888C156.504 184.32 155.8 186.304 155.416 187.84C155.16 188.672 154.936 189.76 154.744 191.104C154.552 192.384 154.072 193.28 153.304 193.792C153.112 193.856 152.504 194.176 151.48 194.752C150.52 195.328 149.592 195.872 148.696 196.384C147.736 196.96 147.256 197.248 147.256 197.248ZM210.952 201.952C208.392 201.952 206.44 201.184 205.096 199.648C203.752 198.176 202.824 196.352 202.312 194.176C201.864 191.936 201.64 189.76 201.64 187.648C201.64 186.176 201.704 184.704 201.832 183.232C202.024 181.76 202.28 180.32 202.6 178.912C203.752 173.216 205.8 167.904 208.744 162.976C210.984 159.2 213.704 155.68 216.904 152.416C220.168 149.152 223.752 146.272 227.656 143.776C231.56 141.216 235.688 139.232 240.04 137.824C244.392 136.416 248.776 135.712 253.192 135.712C253.512 135.712 253.672 135.872 253.672 136.192C253.672 136.512 253.512 136.672 253.192 136.672C249.544 136.672 245.832 137.408 242.056 138.88C238.344 140.288 234.76 142.208 231.304 144.64C227.848 147.008 224.68 149.632 221.8 152.512C218.984 155.392 216.616 158.304 214.696 161.248C213.16 163.488 211.848 165.856 210.76 168.352C209.672 170.848 208.776 173.408 208.072 176.032C207.624 177.632 207.304 179.328 207.112 181.12C206.984 182.848 206.92 184.544 206.92 186.208C206.92 187.552 207.016 189.024 207.208 190.624C207.4 192.16 207.752 193.632 208.264 195.04C208.84 196.448 209.64 197.6 210.664 198.496C211.752 199.456 213.16 199.936 214.888 199.936C215.208 199.936 215.528 199.904 215.848 199.84C216.168 199.776 216.456 199.744 216.712 199.744C217.096 199.744 217.288 199.904 217.288 200.224C217.288 200.544 216.84 200.832 215.944 201.088C215.048 201.408 214.088 201.632 213.064 201.76C212.04 201.888 211.336 201.952 210.952 201.952ZM272.818 154.72C272.306 154.72 271.506 154.528 270.418 154.144C269.394 153.696 268.882 153.152 268.882 152.512C268.882 152.448 268.882 152.416 268.882 152.416C268.946 152.352 268.978 152.288 268.978 152.224C269.298 151.584 270.002 151.2 271.09 151.072C272.242 150.944 273.106 150.752 273.682 150.496C274.962 149.984 276.21 149.568 277.426 149.248C278.642 148.928 279.794 148.352 280.882 147.52C281.138 147.648 281.266 147.776 281.266 147.904C281.266 148.16 280.978 148.512 280.402 148.96C279.89 149.408 279.538 149.792 279.346 150.112C279.09 150.496 278.514 151.072 277.618 151.84C276.786 152.544 275.89 153.216 274.93 153.856C273.97 154.432 273.266 154.72 272.818 154.72ZM256.594 196.288C255.57 196.288 254.866 196.032 254.482 195.52C254.098 195.008 253.906 194.272 253.906 193.312C253.906 191.2 254.322 188.64 255.154 185.632C256.05 182.624 257.042 179.584 258.13 176.512C259.218 173.376 260.082 170.592 260.722 168.16C260.978 167.264 261.586 166.656 262.546 166.336C263.57 165.952 264.434 165.504 265.138 164.992C266.162 164.288 267.25 163.712 268.402 163.264C269.554 162.752 270.77 162.496 272.05 162.496C272.37 162.496 272.562 162.56 272.626 162.688C272.754 162.816 272.818 162.912 272.818 162.976C272.818 163.36 272.594 163.552 272.146 163.552C271.25 163.552 270.322 164.096 269.362 165.184C268.402 166.208 267.442 167.552 266.482 169.216C265.522 170.88 264.658 172.608 263.89 174.4C263.122 176.192 262.45 177.856 261.874 179.392C261.298 180.864 260.914 181.952 260.722 182.656C260.402 183.68 260.082 184.896 259.762 186.304C259.442 187.648 259.282 188.896 259.282 190.048C259.282 190.496 259.346 191.04 259.474 191.68C259.602 192.256 259.986 192.544 260.626 192.544C261.074 192.544 261.554 192.384 262.066 192.064C263.474 191.232 264.85 190.112 266.194 188.704C267.602 187.232 268.882 185.664 270.034 184C271.25 182.272 272.21 180.704 272.914 179.296C273.042 179.36 273.106 179.488 273.106 179.68C273.106 180.064 272.882 180.64 272.434 181.408C271.986 182.112 271.474 182.88 270.898 183.712C270.322 184.544 269.778 185.28 269.266 185.92C268.818 186.56 268.594 186.944 268.594 187.072C268.53 187.584 268.434 187.968 268.306 188.224C268.178 188.416 267.986 188.768 267.73 189.28C266.962 190.048 265.938 191.008 264.658 192.16C263.378 193.248 262.034 194.208 260.626 195.04C259.218 195.872 257.874 196.288 256.594 196.288ZM276.598 179.968C276.342 179.968 275.958 179.68 275.446 179.104C274.998 178.528 274.742 178.08 274.678 177.76L274.773 177.568C275.286 177.376 276.246 177.248 277.654 177.184C279.062 177.12 280.502 177.088 281.974 177.088C283.51 177.024 284.598 176.992 285.238 176.992C285.814 176.992 286.71 177.024 287.926 177.088C289.142 177.088 290.422 177.152 291.766 177.28C293.174 177.344 294.422 177.44 295.51 177.568C296.662 177.696 297.462 177.856 297.91 178.048C297.974 178.112 298.038 178.144 298.102 178.144C298.166 178.144 298.198 178.208 298.198 178.336C298.198 178.72 298.006 178.912 297.622 178.912C294.102 178.912 290.582 179.104 287.062 179.488C283.606 179.808 280.118 179.968 276.598 179.968ZM276.598 189.856C276.342 189.856 275.958 189.568 275.446 188.992C274.998 188.352 274.742 187.904 274.678 187.648L274.773 187.456C275.286 187.264 276.246 187.136 277.654 187.072C279.062 186.944 280.502 186.88 281.974 186.88C283.51 186.816 284.598 186.784 285.238 186.784C285.814 186.784 286.71 186.816 287.926 186.88C289.142 186.88 290.422 186.944 291.766 187.072C293.174 187.136 294.422 187.264 295.51 187.456C296.662 187.584 297.462 187.744 297.91 187.936C298.102 187.936 298.198 188.032 298.198 188.224C298.198 188.544 298.006 188.704 297.622 188.704C294.102 188.704 290.582 188.896 287.062 189.28C283.606 189.664 280.118 189.856 276.598 189.856ZM338.031 202.24C331.759 202.24 326.799 200.48 323.151 196.96C319.503 193.44 317.679 188.512 317.679 182.176C317.679 178.848 318.127 175.584 319.023 172.384C318.383 170.848 317.903 169.248 317.583 167.584C317.263 165.92 317.103 164.256 317.103 162.592C317.103 159.392 317.647 156.608 318.735 154.24C319.887 151.808 321.551 149.44 323.727 147.136C326.607 144.064 329.871 141.568 333.519 139.648C337.231 137.664 341.135 136.192 345.231 135.232C349.391 134.272 353.487 133.792 357.519 133.792C361.231 133.792 364.815 134.528 368.271 136C371.727 137.472 374.671 139.616 377.103 142.432C379.535 145.184 381.007 148.512 381.519 152.416C381.711 154.336 381.807 156.192 381.807 157.984C381.807 164.256 380.495 170.144 377.871 175.648C375.311 181.088 371.759 185.856 367.215 189.952C362.735 194.048 357.615 197.216 351.855 199.456C349.679 200.288 347.407 200.96 345.039 201.472C342.735 201.984 340.399 202.24 338.031 202.24ZM335.727 197.344C338.543 197.344 341.359 196.96 344.175 196.192C347.055 195.424 349.775 194.432 352.335 193.216C355.791 191.552 359.183 189.504 362.511 187.072C365.903 184.576 368.943 181.76 371.631 178.624C374.319 175.488 376.463 172.064 378.063 168.352C379.663 164.64 380.463 160.736 380.463 156.64C380.463 155.232 380.367 153.92 380.175 152.704C379.727 149.184 378.287 146.208 375.855 143.776C373.487 141.344 370.639 139.488 367.311 138.208C364.047 136.864 360.783 136.192 357.519 136.192C352.911 136.192 348.335 136.928 343.791 138.4C339.311 139.808 335.215 141.952 331.503 144.832C327.855 147.712 324.975 151.328 322.863 155.68C322.223 156.896 321.679 158.464 321.231 160.384C320.847 162.24 320.655 163.904 320.655 165.376C320.655 165.632 320.655 165.92 320.655 166.24C320.719 166.56 320.783 166.88 320.847 167.2C322.767 163.616 325.231 160.16 328.239 156.832C331.247 153.504 334.607 150.528 338.319 147.904C342.095 145.28 346.063 143.2 350.223 141.664C354.383 140.128 358.543 139.36 362.703 139.36C362.831 139.36 363.247 139.392 363.951 139.456C364.655 139.52 365.007 139.712 365.007 140.032C365.007 140.288 364.623 140.48 363.855 140.608C363.151 140.672 362.735 140.704 362.607 140.704C359.663 140.704 356.559 141.408 353.295 142.816C350.095 144.16 346.895 145.984 343.695 148.288C340.495 150.592 337.487 153.152 334.671 155.968C331.919 158.784 329.455 161.664 327.279 164.608C325.167 167.488 323.535 170.24 322.383 172.864C323.215 174.464 324.463 175.968 326.127 177.376C327.855 178.72 329.775 179.904 331.887 180.928C334.063 181.888 336.239 182.656 338.415 183.232C340.591 183.744 342.543 184 344.271 184H345.519C345.647 184 345.871 184.032 346.191 184.096C346.575 184.096 346.767 184.224 346.767 184.48C346.767 184.8 346.351 185.056 345.519 185.248C344.687 185.44 343.823 185.568 342.927 185.632C342.031 185.632 341.455 185.632 341.199 185.632C338.831 185.632 336.367 185.248 333.807 184.48C331.247 183.712 328.847 182.592 326.607 181.12C324.431 179.648 322.639 177.92 321.231 175.936C320.911 176.96 320.527 178.048 320.079 179.2C319.695 180.288 319.503 181.344 319.503 182.368C319.503 187.424 321.007 191.2 324.015 193.696C327.087 196.128 330.991 197.344 335.727 197.344ZM403.59 205.312C403.59 205.056 403.91 204.416 404.55 203.392C405.254 202.432 405.926 201.152 406.566 199.552C407.27 198.016 407.622 196.32 407.622 194.464C407.622 193.952 407.526 193.472 407.334 193.024C407.142 192.576 407.046 192.128 407.046 191.68C407.046 191.232 407.11 190.72 407.238 190.144C407.43 189.504 408.006 189.184 408.966 189.184C409.67 189.184 410.278 189.44 410.79 189.952C411.302 190.4 411.558 191.072 411.558 191.968C411.558 192.608 411.462 193.248 411.27 193.888C411.142 194.528 410.95 195.168 410.694 195.808C409.606 198.176 408.518 200.352 407.43 202.336C406.406 204.32 405.542 205.312 404.838 205.312H403.59ZM456.756 154.72C456.244 154.72 455.444 154.528 454.356 154.144C453.332 153.696 452.82 153.152 452.82 152.512C452.82 152.448 452.82 152.416 452.82 152.416C452.884 152.352 452.916 152.288 452.916 152.224C453.236 151.584 453.94 151.2 455.028 151.072C456.18 150.944 457.044 150.752 457.62 150.496C458.9 149.984 460.148 149.568 461.364 149.248C462.58 148.928 463.732 148.352 464.82 147.52C465.076 147.648 465.204 147.776 465.204 147.904C465.204 148.16 464.916 148.512 464.34 148.96C463.828 149.408 463.476 149.792 463.284 150.112C463.028 150.496 462.452 151.072 461.556 151.84C460.724 152.544 459.828 153.216 458.868 153.856C457.908 154.432 457.204 154.72 456.756 154.72ZM440.532 196.288C439.508 196.288 438.804 196.032 438.42 195.52C438.036 195.008 437.844 194.272 437.844 193.312C437.844 191.2 438.26 188.64 439.092 185.632C439.988 182.624 440.98 179.584 442.068 176.512C443.156 173.376 444.02 170.592 444.66 168.16C444.916 167.264 445.524 166.656 446.484 166.336C447.508 165.952 448.372 165.504 449.076 164.992C450.1 164.288 451.188 163.712 452.34 163.264C453.492 162.752 454.708 162.496 455.988 162.496C456.308 162.496 456.5 162.56 456.564 162.688C456.692 162.816 456.756 162.912 456.756 162.976C456.756 163.36 456.532 163.552 456.084 163.552C455.188 163.552 454.26 164.096 453.3 165.184C452.34 166.208 451.38 167.552 450.42 169.216C449.46 170.88 448.596 172.608 447.828 174.4C447.06 176.192 446.388 177.856 445.812 179.392C445.236 180.864 444.852 181.952 444.66 182.656C444.34 183.68 444.02 184.896 443.7 186.304C443.38 187.648 443.22 188.896 443.22 190.048C443.22 190.496 443.284 191.04 443.412 191.68C443.54 192.256 443.924 192.544 444.564 192.544C445.012 192.544 445.492 192.384 446.004 192.064C447.412 191.232 448.788 190.112 450.132 188.704C451.54 187.232 452.82 185.664 453.972 184C455.188 182.272 456.148 180.704 456.852 179.296C456.98 179.36 457.044 179.488 457.044 179.68C457.044 180.064 456.82 180.64 456.372 181.408C455.924 182.112 455.412 182.88 454.836 183.712C454.26 184.544 453.716 185.28 453.204 185.92C452.756 186.56 452.532 186.944 452.532 187.072C452.468 187.584 452.372 187.968 452.244 188.224C452.116 188.416 451.924 188.768 451.668 189.28C450.9 190.048 449.876 191.008 448.596 192.16C447.316 193.248 445.972 194.208 444.564 195.04C443.156 195.872 441.812 196.288 440.532 196.288ZM477.047 181.696C477.047 182.016 476.983 182.336 476.855 182.656C476.727 182.912 476.471 183.008 476.087 182.944L475.319 182.56C473.655 180.256 471.831 178.368 469.847 176.896C467.927 175.36 465.879 173.728 463.703 172C463.511 171.808 463.415 171.616 463.415 171.424C463.415 171.104 463.735 170.4 464.375 169.312C465.079 168.16 465.911 166.848 466.871 165.376C467.895 163.904 468.951 162.432 470.039 160.96C471.127 159.424 472.087 158.08 472.919 156.928C473.815 155.776 474.423 155.008 474.743 154.624C475.255 153.92 475.863 153.568 476.567 153.568C477.015 153.568 477.239 153.76 477.239 154.144C477.239 154.4 476.823 155.2 475.991 156.544C475.159 157.888 474.167 159.424 473.015 161.152C471.863 162.88 470.775 164.48 469.751 165.952C468.727 167.424 468.055 168.384 467.735 168.832C468.119 169.28 468.791 170.112 469.751 171.328C470.775 172.544 471.831 173.888 472.919 175.36C474.071 176.768 475.031 178.08 475.799 179.296C476.631 180.448 477.047 181.248 477.047 181.696ZM507.267 197.44C506.755 197.44 506.275 197.056 505.827 196.288C505.443 195.52 505.251 194.912 505.251 194.464C505.251 194.016 505.443 193.536 505.827 193.024C506.211 192.512 506.595 192.192 506.979 192.064C507.235 191.744 507.747 191.36 508.515 190.912C509.283 190.464 510.083 190.048 510.915 189.664C511.747 189.28 512.323 189.088 512.643 189.088C512.707 189.088 512.739 189.12 512.739 189.184C512.803 189.184 512.835 189.184 512.835 189.184L512.931 189.28C512.931 189.344 512.707 189.632 512.259 190.144C511.875 190.592 511.619 190.88 511.491 191.008C511.171 191.456 510.883 191.968 510.627 192.544C510.435 193.12 510.275 193.696 510.147 194.272C509.955 194.848 509.603 195.52 509.091 196.288C508.643 197.056 508.035 197.44 507.267 197.44ZM525.736 197.44C525.224 197.44 524.744 197.056 524.296 196.288C523.912 195.52 523.72 194.912 523.72 194.464C523.72 194.016 523.912 193.536 524.296 193.024C524.68 192.512 525.064 192.192 525.448 192.064C525.704 191.744 526.216 191.36 526.984 190.912C527.752 190.464 528.552 190.048 529.384 189.664C530.216 189.28 530.792 189.088 531.112 189.088C531.176 189.088 531.208 189.12 531.208 189.184C531.272 189.184 531.304 189.184 531.304 189.184L531.4 189.28C531.4 189.344 531.176 189.632 530.728 190.144C530.344 190.592 530.088 190.88 529.96 191.008C529.64 191.456 529.352 191.968 529.096 192.544C528.904 193.12 528.744 193.696 528.616 194.272C528.424 194.848 528.072 195.52 527.56 196.288C527.112 197.056 526.504 197.44 525.736 197.44ZM544.204 197.44C543.692 197.44 543.212 197.056 542.764 196.288C542.38 195.52 542.188 194.912 542.188 194.464C542.188 194.016 542.38 193.536 542.764 193.024C543.148 192.512 543.532 192.192 543.916 192.064C544.172 191.744 544.684 191.36 545.452 190.912C546.22 190.464 547.02 190.048 547.852 189.664C548.684 189.28 549.26 189.088 549.58 189.088C549.644 189.088 549.676 189.12 549.676 189.184C549.74 189.184 549.772 189.184 549.772 189.184L549.868 189.28C549.868 189.344 549.644 189.632 549.196 190.144C548.812 190.592 548.556 190.88 548.428 191.008C548.108 191.456 547.82 191.968 547.564 192.544C547.372 193.12 547.212 193.696 547.084 194.272C546.892 194.848 546.54 195.52 546.028 196.288C545.58 197.056 544.972 197.44 544.204 197.44ZM571.834 204.928C571.514 204.928 571.194 204.896 570.874 204.832C570.554 204.768 570.394 204.608 570.394 204.352C570.394 204.032 570.618 203.872 571.066 203.872L572.026 203.968C574.33 203.968 576.794 203.424 579.418 202.336C582.106 201.248 584.442 200.096 586.426 198.88C589.818 196.768 593.05 194.048 596.122 190.72C599.194 187.392 601.914 183.712 604.282 179.68C606.65 175.648 608.506 171.488 609.85 167.2C611.194 162.848 611.866 158.656 611.866 154.624C611.866 150.912 611.098 147.52 609.562 144.448C608.09 141.376 605.466 139.2 601.69 137.92C600.794 137.6 599.898 137.376 599.002 137.248C598.17 137.056 597.306 136.928 596.41 136.864C596.09 136.864 595.93 136.736 595.93 136.48C595.93 136.096 596.346 135.872 597.178 135.808C598.074 135.68 598.746 135.616 599.194 135.616C605.082 135.616 609.53 137.376 612.538 140.896C615.546 144.416 617.05 148.96 617.05 154.528C617.05 158.816 616.154 163.264 614.362 167.872C612.634 172.416 610.298 176.832 607.354 181.12C604.41 185.344 601.146 189.184 597.562 192.64C593.978 196.032 590.362 198.752 586.714 200.8C584.666 202.016 582.394 203.008 579.898 203.776C577.402 204.544 574.97 204.928 572.602 204.928H571.834ZM647.483 208.96C645.307 208.96 643.227 208.768 641.243 208.384C639.259 208 637.659 207.2 636.443 205.984C635.227 204.768 634.619 202.88 634.619 200.32C634.619 197.824 634.939 195.36 635.579 192.928C636.219 190.496 636.859 188.064 637.499 185.632C638.139 183.2 638.459 180.736 638.459 178.24C638.459 174.976 637.371 172.736 635.195 171.52C633.019 170.304 630.363 169.664 627.227 169.6L627.707 168.832C629.499 168.704 631.451 168.416 633.563 167.968C635.739 167.456 637.531 166.656 638.939 165.568C640.795 163.968 642.075 162.048 642.779 159.808C643.547 157.504 644.059 155.072 644.315 152.512C644.571 149.888 644.923 147.328 645.371 144.832C645.819 142.272 646.651 139.968 647.867 137.92C649.147 135.872 651.131 134.24 653.819 133.024C656.571 131.744 660.379 131.104 665.243 131.104C665.627 131.104 665.819 131.296 665.819 131.68C665.819 132.064 665.563 132.256 665.051 132.256C661.595 132.256 658.843 132.736 656.795 133.696C654.811 134.592 653.307 135.872 652.283 137.536C651.259 139.136 650.491 140.96 649.979 143.008C649.467 145.056 649.019 147.232 648.635 149.536C648.251 151.776 647.707 154.016 647.003 156.256C645.723 160.16 643.643 163.328 640.763 165.76C637.883 168.128 634.683 169.28 631.163 169.216C633.979 169.472 636.379 170.464 638.363 172.192C640.411 173.856 641.435 176 641.435 178.624C641.435 182.272 641.083 185.856 640.379 189.376C639.675 192.832 639.323 196.352 639.323 199.936C639.323 202.24 639.739 203.936 640.571 205.024C641.467 206.176 642.491 206.912 643.643 207.232C644.795 207.616 645.851 207.872 646.811 208C647.771 208.128 648.379 208.352 648.635 208.672C648.571 208.8 648.379 208.864 648.059 208.864C647.803 208.928 647.611 208.96 647.483 208.96ZM187.298 326.44C186.786 326.44 186.306 326.056 185.858 325.288C185.474 324.52 185.282 323.912 185.282 323.464C185.282 323.016 185.474 322.536 185.858 322.024C186.242 321.512 186.626 321.192 187.01 321.064C187.266 320.744 187.778 320.36 188.546 319.912C189.314 319.464 190.114 319.048 190.946 318.664C191.778 318.28 192.354 318.088 192.674 318.088C192.738 318.088 192.77 318.12 192.77 318.184C192.834 318.184 192.866 318.184 192.866 318.184L192.962 318.28C192.962 318.344 192.738 318.632 192.29 319.144C191.906 319.592 191.65 319.88 191.522 320.008C191.202 320.456 190.914 320.968 190.658 321.544C190.466 322.12 190.306 322.696 190.178 323.272C189.986 323.848 189.634 324.52 189.122 325.288C188.674 326.056 188.066 326.44 187.298 326.44ZM205.767 326.44C205.255 326.44 204.775 326.056 204.327 325.288C203.943 324.52 203.751 323.912 203.751 323.464C203.751 323.016 203.943 322.536 204.327 322.024C204.711 321.512 205.095 321.192 205.479 321.064C205.735 320.744 206.247 320.36 207.015 319.912C207.783 319.464 208.583 319.048 209.415 318.664C210.247 318.28 210.823 318.088 211.143 318.088C211.207 318.088 211.239 318.12 211.239 318.184C211.303 318.184 211.335 318.184 211.335 318.184L211.431 318.28C211.431 318.344 211.207 318.632 210.759 319.144C210.375 319.592 210.119 319.88 209.991 320.008C209.671 320.456 209.383 320.968 209.127 321.544C208.935 322.12 208.775 322.696 208.647 323.272C208.455 323.848 208.103 324.52 207.591 325.288C207.143 326.056 206.535 326.44 205.767 326.44ZM224.236 326.44C223.724 326.44 223.244 326.056 222.796 325.288C222.412 324.52 222.22 323.912 222.22 323.464C222.22 323.016 222.412 322.536 222.796 322.024C223.18 321.512 223.564 321.192 223.948 321.064C224.204 320.744 224.716 320.36 225.484 319.912C226.252 319.464 227.052 319.048 227.884 318.664C228.716 318.28 229.292 318.088 229.612 318.088C229.676 318.088 229.708 318.12 229.708 318.184C229.772 318.184 229.804 318.184 229.804 318.184L229.9 318.28C229.9 318.344 229.676 318.632 229.228 319.144C228.844 319.592 228.588 319.88 228.46 320.008C228.14 320.456 227.852 320.968 227.596 321.544C227.404 322.12 227.244 322.696 227.116 323.272C226.924 323.848 226.572 324.52 226.06 325.288C225.612 326.056 225.004 326.44 224.236 326.44ZM110.717 466.96C110.333 466.96 110.141 466.768 110.141 466.384C110.141 466 110.397 465.808 110.909 465.808C114.365 465.808 117.085 465.328 119.069 464.368C121.117 463.472 122.653 462.192 123.677 460.528C124.701 458.928 125.469 457.104 125.981 455.056C126.493 453.008 126.941 450.864 127.325 448.624C127.709 446.32 128.253 444.048 128.957 441.808C130.237 437.84 132.317 434.672 135.197 432.304C138.077 429.936 141.277 428.784 144.797 428.848C141.981 428.592 139.549 427.632 137.501 425.968C135.517 424.24 134.525 422.064 134.525 419.44C134.525 415.792 134.877 412.24 135.581 408.784C136.285 405.264 136.637 401.712 136.637 398.128C136.637 395.824 136.189 394.128 135.293 393.04C134.461 391.888 133.469 391.152 132.317 390.832C131.165 390.448 130.109 390.192 129.149 390.064C128.189 389.936 127.581 389.712 127.325 389.392C127.453 389.264 127.645 389.2 127.901 389.2C128.157 389.136 128.349 389.104 128.477 389.104C130.717 389.104 132.797 389.296 134.717 389.68C136.701 390.064 138.301 390.864 139.517 392.08C140.733 393.296 141.341 395.184 141.341 397.744C141.341 400.24 141.021 402.704 140.381 405.136C139.741 407.568 139.101 410 138.461 412.432C137.821 414.8 137.501 417.264 137.501 419.824C137.501 423.088 138.589 425.328 140.765 426.544C142.941 427.76 145.597 428.4 148.733 428.464L148.253 429.232C146.461 429.36 144.477 429.68 142.301 430.192C140.189 430.64 138.429 431.408 137.021 432.496C135.165 434.032 133.853 435.952 133.085 438.256C132.381 440.56 131.901 443.024 131.645 445.648C131.389 448.208 131.037 450.768 130.589 453.328C130.141 455.824 129.277 458.096 127.997 460.144C126.781 462.192 124.797 463.824 122.045 465.04C119.357 466.32 115.581 466.96 110.717 466.96ZM105.725 584.248C105.597 584.248 105.533 584.216 105.533 584.152C105.533 583.896 105.661 583.64 105.917 583.384C106.109 583.192 106.269 583 106.397 582.808C106.973 581.848 107.613 580.216 108.317 577.912C109.085 575.544 109.821 572.952 110.525 570.136C111.293 567.32 111.965 564.696 112.541 562.264C113.181 559.768 113.629 557.88 113.885 556.6C114.013 556.088 114.141 555.416 114.269 554.584C114.461 553.752 114.685 552.92 114.941 552.088C115.197 551.256 115.485 550.712 115.805 550.456C116.381 549.944 117.245 549.496 118.397 549.112C119.549 548.728 120.701 548.44 121.853 548.248C123.069 547.992 124.061 547.864 124.829 547.864C124.957 547.864 125.117 547.928 125.309 548.056C125.501 548.184 125.629 548.312 125.693 548.44L125.789 548.728C125.725 548.92 125.629 549.016 125.501 549.016C125.373 548.952 125.245 548.92 125.117 548.92C123.901 548.92 122.781 549.624 121.757 551.032C120.733 552.376 119.837 554.04 119.069 556.024C118.301 558.008 117.629 559.928 117.053 561.784C116.541 563.576 116.189 564.92 115.997 565.816C116.637 564.344 117.469 562.68 118.493 560.824C119.581 558.904 120.829 557.08 122.237 555.352C123.645 553.56 125.181 552.088 126.845 550.936C128.509 549.72 130.269 549.112 132.125 549.112C132.381 549.112 132.797 549.176 133.373 549.304C134.013 549.368 134.589 549.528 135.101 549.784C135.677 549.976 135.965 550.232 135.965 550.552L135.869 550.648H135.773L135.197 550.456C135.389 550.904 135.517 551.352 135.581 551.8C135.645 552.248 135.677 552.696 135.677 553.144C135.677 553.528 135.549 554.36 135.293 555.64C135.101 556.92 134.813 558.136 134.429 559.288C134.109 560.376 133.757 560.92 133.373 560.92C133.117 560.92 132.989 560.824 132.989 560.632C132.989 560.312 133.085 559.8 133.277 559.096C133.533 558.328 133.661 557.624 133.661 556.984C133.661 555.832 133.373 554.904 132.797 554.2C132.221 553.496 131.357 553.144 130.205 553.144C128.285 553.144 126.429 553.976 124.637 555.64C122.845 557.24 121.213 559.256 119.741 561.688C118.269 564.056 117.021 566.456 115.997 568.888C114.973 571.32 114.269 573.304 113.885 574.84C113.629 575.672 113.405 576.76 113.213 578.104C113.021 579.384 112.541 580.28 111.773 580.792C111.581 580.856 110.973 581.176 109.949 581.752C108.989 582.328 108.061 582.872 107.165 583.384C106.205 583.96 105.725 584.248 105.725 584.248ZM137.796 583.384C134.084 583.384 132.228 581.496 132.228 577.72C132.228 574.904 132.804 571.896 133.956 568.696C135.108 565.432 136.612 562.328 138.468 559.384C140.324 556.376 142.276 553.944 144.324 552.088C146.756 549.976 149.604 548.92 152.868 548.92C153.636 548.92 154.564 549.016 155.652 549.208C156.804 549.4 157.796 549.784 158.628 550.36C159.46 550.872 159.876 551.64 159.876 552.664C159.876 554.136 159.332 555.832 158.244 557.752C157.156 559.608 156.164 561.112 155.268 562.264C155.588 562.328 155.972 562.424 156.42 562.552C156.932 562.68 157.188 562.936 157.188 563.32C157.188 563.512 157.028 563.608 156.708 563.608C156.132 563.608 155.556 563.544 154.98 563.416C154.404 563.288 153.828 563.224 153.252 563.224C151.076 563.224 148.836 563.544 146.532 564.184C144.292 564.824 142.148 565.496 140.1 566.2C139.46 567.736 138.884 569.432 138.372 571.288C137.924 573.144 137.7 574.904 137.7 576.568C137.7 577.784 137.924 578.872 138.372 579.832C138.884 580.792 139.844 581.272 141.252 581.272C142.98 581.272 144.74 580.792 146.532 579.832C148.388 578.808 150.148 577.528 151.812 575.992C153.54 574.392 155.076 572.728 156.42 571C157.764 569.272 158.82 567.704 159.588 566.296C159.652 566.36 159.684 566.488 159.684 566.68C159.684 567.256 159.332 568.056 158.628 569.08C157.924 570.04 157.188 571 156.42 571.96C155.716 572.92 155.3 573.624 155.172 574.072C155.108 574.52 154.98 574.904 154.788 575.224C154.66 575.544 154.5 575.896 154.308 576.28C153.22 577.368 151.652 578.488 149.604 579.64C147.62 580.728 145.54 581.624 143.364 582.328C141.252 583.032 139.396 583.384 137.796 583.384ZM141.444 563.128C143.108 562.808 144.74 562.552 146.34 562.36C148.004 562.168 149.668 562.072 151.332 562.072C151.844 562.072 152.356 562.072 152.868 562.072C153.38 562.072 153.892 562.104 154.404 562.168C154.916 561.08 155.332 559.896 155.652 558.616C156.036 557.336 156.228 556.088 156.228 554.872C156.228 553.912 156.036 552.952 155.652 551.992C155.268 550.968 154.436 550.456 153.156 550.456C151.94 550.456 150.692 550.968 149.412 551.992C148.196 553.016 147.204 553.944 146.436 554.776C145.412 555.992 144.484 557.336 143.652 558.808C142.884 560.216 142.148 561.656 141.444 563.128ZM162.577 583.288C161.553 583.288 160.849 583.032 160.465 582.52C160.081 582.008 159.889 581.272 159.889 580.312C159.889 578.648 160.273 576.568 161.041 574.072C161.809 571.512 162.769 568.824 163.921 566.008C165.072 563.128 166.193 560.408 167.281 557.848C168.433 555.224 169.361 553.08 170.065 551.416C169.233 551.48 168.401 551.512 167.569 551.512C166.737 551.512 165.873 551.544 164.977 551.608C164.849 551.48 164.785 551.352 164.785 551.224C164.785 550.84 165.041 550.392 165.553 549.88C166.065 549.368 166.641 548.952 167.281 548.632C167.985 548.248 168.497 548.056 168.817 548.056H171.505C172.145 546.52 172.785 544.984 173.424 543.448C174.129 541.912 174.769 540.376 175.345 538.84C175.665 538.008 176.017 537.336 176.401 536.824C176.849 536.248 177.457 535.704 178.225 535.192C179.313 534.488 180.657 533.912 182.257 533.464C183.857 533.016 185.265 532.792 186.481 532.792C186.609 532.792 186.737 532.856 186.865 532.984C187.057 533.112 187.185 533.208 187.249 533.272V533.656C187.249 533.848 187.153 533.912 186.961 533.848C186.833 533.784 186.705 533.752 186.577 533.752C185.809 533.752 184.913 534.392 183.889 535.672C182.865 536.888 181.809 538.36 180.721 540.088C179.633 541.816 178.673 543.48 177.841 545.08C177.073 546.616 176.529 547.672 176.209 548.248H180.049C181.073 548.248 182.097 548.248 183.121 548.248C184.145 548.184 185.168 548.088 186.193 547.96L186.289 548.152C186.225 548.152 186.193 548.184 186.193 548.248C186.193 548.312 186.161 548.344 186.097 548.344C185.905 548.536 185.425 548.856 184.656 549.304C183.889 549.688 183.121 550.04 182.353 550.36C181.585 550.68 181.041 550.872 180.721 550.936C179.697 551.064 178.673 551.16 177.649 551.224C176.689 551.288 175.697 551.32 174.673 551.32C174.033 552.728 173.201 554.584 172.177 556.888C171.153 559.192 170.129 561.656 169.105 564.28C168.081 566.84 167.217 569.304 166.513 571.672C165.873 573.976 165.553 575.896 165.553 577.432C165.553 577.816 165.617 578.264 165.745 578.776C165.873 579.288 166.193 579.544 166.705 579.544C167.153 579.544 167.601 579.384 168.049 579.064C169.457 578.232 170.833 577.112 172.177 575.704C173.585 574.232 174.865 572.664 176.017 571C177.233 569.272 178.193 567.704 178.897 566.296C179.025 566.36 179.089 566.488 179.089 566.68C179.089 567.064 178.865 567.64 178.417 568.408C177.969 569.112 177.457 569.88 176.881 570.712C176.305 571.544 175.761 572.28 175.249 572.92C174.801 573.56 174.577 573.944 174.577 574.072C174.513 574.584 174.385 574.968 174.193 575.224C174.065 575.416 173.905 575.768 173.713 576.28C172.881 577.048 171.825 578.008 170.545 579.16C169.265 580.248 167.921 581.208 166.513 582.04C165.105 582.872 163.793 583.288 162.577 583.288ZM197.173 583.288C196.021 583.288 195.253 582.968 194.869 582.328C194.485 581.624 194.293 580.76 194.293 579.736C194.293 578.072 194.549 576.216 195.061 574.168C195.637 572.056 196.149 570.2 196.597 568.6C194.933 571.16 193.013 573.688 190.837 576.184C188.661 578.68 186.165 580.664 183.349 582.136C182.901 582.392 182.389 582.648 181.813 582.904C181.237 583.096 180.693 583.192 180.181 583.192C179.285 583.192 178.677 582.872 178.357 582.232C178.101 581.592 177.973 580.92 177.973 580.216V579.832C177.973 578.808 178.165 577.784 178.549 576.76C178.933 575.672 179.285 574.648 179.605 573.688C180.117 572.216 180.725 570.392 181.429 568.216C182.197 565.976 182.869 563.736 183.445 561.496C184.085 559.256 184.405 557.432 184.405 556.024C184.405 555.448 184.309 554.904 184.117 554.392C183.989 553.88 183.573 553.592 182.869 553.528C182.869 553.528 182.805 553.528 182.677 553.528C182.613 553.528 182.581 553.496 182.581 553.432C182.581 553.24 182.901 553.048 183.541 552.856C184.245 552.6 185.077 552.344 186.037 552.088C186.997 551.832 187.893 551.64 188.725 551.512C189.557 551.32 190.101 551.224 190.357 551.224C190.485 551.224 190.709 551.256 191.029 551.32C191.413 551.384 191.605 551.576 191.605 551.896C191.605 552.024 191.573 552.12 191.509 552.184C190.869 553.72 190.133 555.544 189.301 557.656C188.469 559.768 187.637 562.008 186.805 564.376C186.037 566.68 185.397 568.952 184.885 571.192C184.373 573.368 184.117 575.32 184.117 577.048C184.117 577.368 184.181 577.688 184.309 578.008C184.437 578.328 184.693 578.488 185.077 578.488C185.781 578.488 186.645 578.072 187.669 577.24C188.757 576.408 189.525 575.768 189.973 575.32C192.341 572.824 194.485 569.784 196.405 566.2C198.325 562.616 199.797 559.192 200.821 555.928C201.141 554.968 201.461 554.296 201.781 553.912C202.101 553.464 202.677 552.92 203.509 552.28C204.533 551.576 205.653 550.936 206.869 550.36C208.149 549.784 209.429 549.496 210.709 549.496C210.837 549.496 210.997 549.592 211.189 549.784C211.381 549.912 211.477 550.072 211.477 550.264C211.477 550.392 211.381 550.488 211.189 550.552C211.061 550.552 210.933 550.552 210.805 550.552C209.973 550.552 209.109 551.064 208.213 552.088C207.317 553.112 206.453 554.424 205.621 556.024C204.789 557.624 204.021 559.288 203.317 561.016C202.677 562.744 202.101 564.344 201.589 565.816C201.141 567.224 200.821 568.28 200.629 568.984C200.373 570.2 200.085 571.416 199.765 572.632C199.509 573.848 199.381 575.096 199.381 576.376C199.381 576.888 199.445 577.56 199.573 578.392C199.765 579.16 200.245 579.544 201.013 579.544C201.461 579.544 201.909 579.384 202.357 579.064C203.765 578.232 205.109 577.112 206.389 575.704C207.669 574.232 208.853 572.664 209.941 571C211.029 569.272 211.893 567.704 212.533 566.296C212.661 566.36 212.725 566.488 212.725 566.68C212.725 567.192 212.373 568.024 211.669 569.176C211.029 570.264 210.357 571.32 209.653 572.344C209.013 573.304 208.661 573.88 208.597 574.072C208.533 574.52 208.437 574.904 208.309 575.224C208.245 575.48 208.117 575.832 207.925 576.28C207.157 577.112 206.133 578.072 204.853 579.16C203.637 580.248 202.357 581.208 201.013 582.04C199.669 582.872 198.389 583.288 197.173 583.288ZM206.037 584.248C205.909 584.248 205.845 584.216 205.845 584.152C205.845 583.896 205.973 583.64 206.229 583.384C206.421 583.192 206.581 583 206.709 582.808C207.285 581.848 207.925 580.216 208.63 577.912C209.398 575.544 210.134 572.952 210.838 570.136C211.606 567.32 212.278 564.696 212.854 562.264C213.494 559.768 213.942 557.88 214.198 556.6C214.326 556.088 214.454 555.416 214.582 554.584C214.774 553.752 214.998 552.92 215.254 552.088C215.51 551.256 215.798 550.712 216.118 550.456C216.694 549.944 217.558 549.496 218.71 549.112C219.862 548.728 221.014 548.44 222.166 548.248C223.382 547.992 224.374 547.864 225.142 547.864C225.27 547.864 225.43 547.928 225.622 548.056C225.814 548.184 225.942 548.312 226.006 548.44L226.102 548.728C226.038 548.92 225.942 549.016 225.814 549.016C225.686 548.952 225.558 548.92 225.43 548.92C224.214 548.92 223.094 549.624 222.07 551.032C221.046 552.376 220.15 554.04 219.382 556.024C218.614 558.008 217.942 559.928 217.366 561.784C216.854 563.576 216.502 564.92 216.31 565.816C216.95 564.344 217.782 562.68 218.806 560.824C219.894 558.904 221.141 557.08 222.549 555.352C223.958 553.56 225.494 552.088 227.158 550.936C228.822 549.72 230.582 549.112 232.438 549.112C232.694 549.112 233.11 549.176 233.686 549.304C234.326 549.368 234.902 549.528 235.414 549.784C235.99 549.976 236.278 550.232 236.278 550.552L236.182 550.648H236.086L235.51 550.456C235.702 550.904 235.83 551.352 235.894 551.8C235.958 552.248 235.99 552.696 235.99 553.144C235.99 553.528 235.862 554.36 235.606 555.64C235.414 556.92 235.126 558.136 234.742 559.288C234.422 560.376 234.07 560.92 233.686 560.92C233.43 560.92 233.302 560.824 233.302 560.632C233.302 560.312 233.398 559.8 233.59 559.096C233.846 558.328 233.974 557.624 233.974 556.984C233.974 555.832 233.686 554.904 233.109 554.2C232.534 553.496 231.67 553.144 230.518 553.144C228.598 553.144 226.742 553.976 224.95 555.64C223.158 557.24 221.526 559.256 220.054 561.688C218.582 564.056 217.334 566.456 216.31 568.888C215.286 571.32 214.582 573.304 214.198 574.84C213.942 575.672 213.718 576.76 213.526 578.104C213.334 579.384 212.854 580.28 212.086 580.792C211.894 580.856 211.286 581.176 210.262 581.752C209.302 582.328 208.373 582.872 207.477 583.384C206.517 583.96 206.037 584.248 206.037 584.248ZM229.66 584.248C229.596 584.248 229.564 584.216 229.564 584.152C229.564 583.896 229.692 583.64 229.948 583.384C230.14 583.128 230.268 582.936 230.332 582.808C230.78 582.104 231.324 580.92 231.964 579.256C232.54 577.528 233.116 575.608 233.692 573.496C234.332 571.32 234.908 569.144 235.42 566.968C235.996 564.728 236.508 562.68 236.956 560.824C237.404 558.968 237.724 557.56 237.916 556.6C238.044 556.088 238.172 555.416 238.3 554.584C238.428 553.752 238.62 552.92 238.876 552.088C239.132 551.256 239.42 550.712 239.74 550.456C240.38 549.944 241.244 549.496 242.332 549.112C243.484 548.728 244.668 548.44 245.884 548.248C247.1 547.992 248.092 547.864 248.86 547.864C248.988 547.864 249.148 547.928 249.34 548.056C249.532 548.184 249.66 548.312 249.724 548.44V548.728C249.724 548.92 249.66 549.016 249.532 549.016C249.404 548.952 249.276 548.92 249.148 548.92C247.74 548.92 246.492 549.72 245.404 551.32C244.316 552.856 243.388 554.776 242.62 557.08C241.852 559.32 241.212 561.496 240.7 563.608C240.188 565.72 239.804 567.32 239.548 568.408C241.596 564.888 243.932 561.528 246.556 558.328C249.244 555.064 252.38 552.44 255.964 550.456C256.412 550.2 256.924 549.944 257.5 549.688C258.076 549.368 258.588 549.208 259.036 549.208C259.868 549.208 260.38 549.592 260.572 550.36C260.764 551.064 260.86 551.736 260.86 552.376C260.86 553.208 260.572 554.424 259.996 556.024C259.42 557.624 258.748 559.224 257.98 560.824C257.276 562.36 256.732 563.576 256.348 564.472C255.964 565.496 255.516 566.808 255.004 568.408C254.492 570.008 254.044 571.608 253.66 573.208C253.276 574.808 253.084 576.152 253.084 577.24C253.084 577.688 253.148 578.2 253.276 578.776C253.404 579.352 253.756 579.64 254.332 579.64C254.652 579.64 254.908 579.576 255.1 579.448C255.356 579.32 255.612 579.192 255.868 579.064C257.34 578.232 258.748 577.112 260.092 575.704C261.5 574.232 262.78 572.664 263.932 571C265.084 569.272 266.044 567.704 266.812 566.296C266.876 566.36 266.908 566.488 266.908 566.68C266.908 567.064 266.684 567.64 266.236 568.408C265.788 569.112 265.276 569.88 264.7 570.712C264.124 571.544 263.58 572.28 263.068 572.92C262.62 573.56 262.396 573.944 262.396 574.072C262.332 574.52 262.236 574.904 262.108 575.224C261.98 575.48 261.82 575.832 261.628 576.28C260.86 577.048 259.74 578.008 258.268 579.16C256.86 580.248 255.388 581.24 253.852 582.136C252.38 582.968 251.068 583.384 249.916 583.384C248.892 583.384 248.188 583 247.804 582.232C247.484 581.4 247.324 580.536 247.324 579.64C247.324 577.912 247.676 575.864 248.38 573.496C249.084 571.064 249.916 568.664 250.876 566.296C251.836 563.864 252.636 561.816 253.276 560.152C253.468 559.64 253.756 558.84 254.14 557.752C254.588 556.664 254.812 555.896 254.812 555.448C254.812 555.128 254.748 554.776 254.62 554.392C254.556 554.008 254.268 553.816 253.756 553.816C253.116 553.816 252.284 554.232 251.26 555.064C250.3 555.896 249.564 556.568 249.052 557.08C246.3 560.152 243.932 563.576 241.948 567.352C239.964 571.064 238.3 574.904 236.956 578.872C236.764 579.384 236.636 579.768 236.572 580.024C236.572 580.216 236.316 580.472 235.804 580.792C235.612 580.92 235.004 581.272 233.98 581.848C233.02 582.424 232.092 582.968 231.196 583.48C230.236 583.992 229.724 584.248 229.66 584.248ZM298.675 585.496C297.907 585.496 297.139 585.336 296.371 585.016C295.667 584.76 295.155 584.28 294.835 583.576C292.403 583.896 289.971 584.248 287.539 584.632C285.107 585.016 282.643 585.208 280.147 585.208C279.699 585.208 279.411 584.728 279.283 583.768C279.091 582.872 278.995 582.296 278.995 582.04C278.995 581.912 279.059 581.592 279.187 581.08C279.251 580.568 279.411 580.312 279.667 580.312C282.163 580.312 284.659 580.28 287.155 580.216C289.651 580.088 292.115 579.96 294.547 579.832C294.867 576.376 295.827 572.696 297.427 568.792C299.091 564.888 301.075 561.016 303.379 557.176C305.747 553.336 308.179 549.688 310.675 546.232C313.171 542.712 315.411 539.608 317.395 536.92C316.691 537.176 315.667 537.784 314.323 538.744C312.979 539.704 311.539 540.792 310.003 542.008C308.467 543.16 306.963 544.312 305.491 545.464C304.083 546.616 302.867 547.576 301.843 548.344C300.819 549.112 300.179 549.496 299.923 549.496C299.795 549.496 299.603 549.464 299.347 549.4C299.155 549.336 299.059 549.176 299.059 548.92C299.059 548.6 299.155 548.312 299.347 548.056C299.539 547.8 299.699 547.576 299.827 547.384L318.355 530.776C319.059 530.2 319.859 529.464 320.755 528.568C321.715 527.672 322.675 526.904 323.635 526.264C324.659 525.56 325.587 525.208 326.419 525.208C327.251 525.208 327.827 525.464 328.147 525.976C328.531 526.488 328.723 527.096 328.723 527.8C328.723 528.952 328.403 529.88 327.763 530.584C326.483 531.992 324.467 534.264 321.715 537.4C319.027 540.536 316.083 544.28 312.883 548.632C311.539 550.488 310.003 552.888 308.275 555.832C306.547 558.712 304.883 562.136 303.283 566.104C301.747 570.008 300.499 574.488 299.539 579.544L299.443 579.736H302.995C304.531 579.736 306.355 579.736 308.467 579.736C310.643 579.736 312.467 579.896 313.939 580.216C314.451 580.344 314.707 580.6 314.707 580.984C314.707 581.624 314.419 581.944 313.843 581.944C313.267 581.944 312.691 581.944 312.115 581.944C311.539 581.88 310.963 581.848 310.387 581.848C308.531 581.848 306.707 581.944 304.915 582.136C303.123 582.328 301.299 582.52 299.443 582.712C299.443 582.968 299.443 583.192 299.443 583.384C299.507 583.576 299.539 583.8 299.539 584.056C299.539 584.312 299.475 584.6 299.347 584.92C299.283 585.304 299.059 585.496 298.675 585.496ZM37.592 724.96C37.208 724.96 37.016 724.768 37.016 724.384C37.016 724 37.272 723.808 37.784 723.808C41.24 723.808 43.96 723.328 45.944 722.368C47.992 721.472 49.528 720.192 50.552 718.528C51.576 716.928 52.344 715.104 52.856 713.056C53.368 711.008 53.816 708.864 54.2 706.624C54.584 704.32 55.128 702.048 55.832 699.808C57.112 695.84 59.192 692.672 62.072 690.304C64.952 687.936 68.152 686.784 71.672 686.848C68.856 686.592 66.424 685.632 64.376 683.968C62.392 682.24 61.4 680.064 61.4 677.44C61.4 673.792 61.752 670.24 62.456 666.784C63.16 663.264 63.512 659.712 63.512 656.128C63.512 653.824 63.064 652.128 62.168 651.04C61.336 649.888 60.344 649.152 59.192 648.832C58.04 648.448 56.984 648.192 56.024 648.064C55.064 647.936 54.456 647.712 54.2 647.392C54.328 647.264 54.52 647.2 54.776 647.2C55.032 647.136 55.224 647.104 55.352 647.104C57.592 647.104 59.672 647.296 61.592 647.68C63.576 648.064 65.176 648.864 66.392 650.08C67.608 651.296 68.216 653.184 68.216 655.744C68.216 658.24 67.896 660.704 67.256 663.136C66.616 665.568 65.976 668 65.336 670.432C64.696 672.8 64.376 675.264 64.376 677.824C64.376 681.088 65.464 683.328 67.64 684.544C69.816 685.76 72.472 686.4 75.608 686.464L75.128 687.232C73.336 687.36 71.352 687.68 69.176 688.192C67.064 688.64 65.304 689.408 63.896 690.496C62.04 692.032 60.728 693.952 59.96 696.256C59.256 698.56 58.776 701.024 58.52 703.648C58.264 706.208 57.912 708.768 57.464 711.328C57.016 713.824 56.152 716.096 54.872 718.144C53.656 720.192 51.672 721.824 48.92 723.04C46.232 724.32 42.456 724.96 37.592 724.96Z" fill="#ED8E00"/>
</svg>
