<svg width="414" height="72" viewBox="0 0 414 72" fill="none" xmlns="http://www.w3.org/2000/svg">
<path d="M2 70H69.6184V2.38156H2V70Z" stroke="#ED8E00" stroke-width="4"/>
<rect x="2" y="-2" width="67.6184" height="67.6184" transform="matrix(1 0 0 -1 67.2369 68)" stroke="#ED8E00" stroke-width="4"/>
<circle cx="6.61093" cy="6.61093" r="6.61093" transform="matrix(1 0 0 -1 96.4352 42.8017)" fill="black"/>
<path d="M169.312 35.4837C169.702 35.8742 169.702 36.5074 169.312 36.8979L162.948 43.2619C162.557 43.6524 161.924 43.6524 161.533 43.2619C161.143 42.8713 161.143 42.2382 161.533 41.8477L167.19 36.1908L161.533 30.5339C161.143 30.1434 161.143 29.5103 161.533 29.1197C161.924 28.7292 162.557 28.7292 162.948 29.1197L169.312 35.4837ZM109.657 35.1908L168.604 35.1908V37.1908L109.657 37.1908V35.1908Z" fill="black"/>
<path d="M172.618 69.6185H240.237V2.00003H172.618V69.6185Z" stroke="#ED8E00" stroke-width="4"/>
<rect x="2" y="-2" width="67.6184" height="67.6184" transform="matrix(1 0 0 -1 237.855 67.6185)" stroke="#ED8E00" stroke-width="4"/>
<circle cx="6.61093" cy="6.61093" r="6.61093" transform="matrix(1 0 0 -1 267.054 42.4202)" fill="black"/>
<path d="M339.93 35.1022C340.321 35.4927 340.321 36.1258 339.93 36.5164L333.566 42.8803C333.176 43.2709 332.542 43.2709 332.152 42.8803C331.761 42.4898 331.761 41.8566 332.152 41.4661L337.809 35.8093L332.152 30.1524C331.761 29.7619 331.761 29.1287 332.152 28.7382C332.542 28.3477 333.176 28.3477 333.566 28.7382L339.93 35.1022ZM280.275 34.8093L339.223 34.8093V36.8093L280.275 36.8093V34.8093Z" fill="black"/>
<line y1="-2" x2="71.6184" y2="-2" transform="matrix(1 0 0 -1 341.618 0)" stroke="#ED8E00" stroke-width="4"/>
<line y1="-2" x2="71.6184" y2="-2" transform="matrix(1 0 0 -1 341.618 68)" stroke="#ED8E00" stroke-width="4"/>
<line y1="-2" x2="71.6184" y2="-2" transform="matrix(0 -1 -1 0 341.618 71.6184)" stroke="#ED8E00" stroke-width="4"/>
</svg>
