<svg width="655" height="398" viewBox="0 0 655 398" fill="none" xmlns="http://www.w3.org/2000/svg">
<rect x="3" y="3" width="64" height="98.6512" stroke="#ED8E00" stroke-width="6"/>
<rect x="163" y="84.7076" width="63.7674" height="99" transform="rotate(-90 163 84.7076)" stroke="#ED8E00" stroke-width="6"/>
<rect x="358" y="84.7076" width="63.7674" height="99" transform="rotate(-90 358 84.7076)" stroke="#ED8E00" stroke-width="6"/>
<rect x="163" y="181.385" width="63.7674" height="99" transform="rotate(-90 163 181.385)" stroke="#ED8E00" stroke-width="6"/>
<rect x="163" y="278.063" width="63.7674" height="99" transform="rotate(-90 163 278.063)" stroke="#ED8E00" stroke-width="6"/>
<rect x="3" y="100.674" width="64" height="98.6512" stroke="#ED8E00" stroke-width="6"/>
<rect x="3" y="198.349" width="64" height="98.6512" stroke="#ED8E00" stroke-width="6"/>
<path d="M38.5476 38.7983V64.9801H35.3771V42.1221H35.2237L28.8317 46.3665V43.1449L35.3771 38.7983H38.5476Z" fill="black"/>
<path d="M35.0959 260.687C33.4084 260.687 31.9041 260.397 30.5831 259.818C29.2706 259.238 28.2266 258.433 27.451 257.401C26.6839 256.362 26.2663 255.156 26.1982 253.783H29.4197C29.4879 254.627 29.7777 255.356 30.2891 255.97C30.8004 256.575 31.4695 257.043 32.2962 257.376C33.1229 257.708 34.0391 257.874 35.0447 257.874C36.1697 257.874 37.1669 257.678 38.0362 257.286C38.9055 256.894 39.5874 256.349 40.0817 255.65C40.576 254.951 40.8232 254.141 40.8232 253.221C40.8232 252.258 40.5845 251.41 40.1072 250.677C39.63 249.935 38.9311 249.356 38.0107 248.938C37.0902 248.521 35.9652 248.312 34.6357 248.312H32.5391V245.499H34.6357C35.6754 245.499 36.5874 245.312 37.3714 244.937C38.1641 244.562 38.782 244.033 39.2251 243.352C39.6768 242.67 39.9027 241.869 39.9027 240.948C39.9027 240.062 39.7067 239.291 39.3146 238.634C38.9226 237.978 38.3686 237.467 37.6527 237.1C36.9453 236.734 36.1101 236.551 35.147 236.551C34.2436 236.551 33.3913 236.717 32.5902 237.049C31.7976 237.373 31.1499 237.846 30.647 238.468C30.1442 239.082 29.8714 239.823 29.8288 240.693H26.7607C26.8118 239.32 27.2251 238.119 28.0007 237.087C28.7763 236.048 29.7905 235.238 31.0433 234.658C32.3047 234.079 33.6896 233.789 35.1982 233.789C36.8175 233.789 38.2067 234.117 39.3658 234.774C40.5249 235.421 41.4155 236.278 42.0376 237.343C42.6598 238.408 42.9709 239.559 42.9709 240.795C42.9709 242.269 42.5831 243.526 41.8075 244.566C41.0405 245.606 39.9964 246.326 38.6754 246.727V246.931C40.3288 247.204 41.62 247.907 42.549 249.041C43.478 250.166 43.9425 251.559 43.9425 253.221C43.9425 254.644 43.5547 255.923 42.7791 257.056C42.0121 258.181 40.9638 259.068 39.6342 259.715C38.3047 260.363 36.7919 260.687 35.0959 260.687Z" fill="black"/>
<rect x="3" y="296" width="64" height="98.6512" stroke="#ED8E00" stroke-width="6"/>
<path d="M35.0959 358.338C33.4084 358.338 31.9041 358.048 30.5831 357.469C29.2706 356.889 28.2266 356.084 27.451 355.053C26.6839 354.013 26.2663 352.807 26.1982 351.435H29.4197C29.4879 352.278 29.7777 353.007 30.2891 353.621C30.8004 354.226 31.4695 354.695 32.2962 355.027C33.1229 355.359 34.0391 355.526 35.0447 355.526C36.1697 355.526 37.1669 355.33 38.0362 354.937C38.9055 354.545 39.5874 354 40.0817 353.301C40.576 352.602 40.8232 351.793 40.8232 350.872C40.8232 349.909 40.5845 349.061 40.1072 348.328C39.63 347.587 38.9311 347.007 38.0107 346.589C37.0902 346.172 35.9652 345.963 34.6357 345.963H32.5391V343.151H34.6357C35.6754 343.151 36.5874 342.963 37.3714 342.588C38.1641 342.213 38.782 341.685 39.2251 341.003C39.6768 340.321 39.9027 339.52 39.9027 338.599C39.9027 337.713 39.7067 336.942 39.3146 336.285C38.9226 335.629 38.3686 335.118 37.6527 334.751C36.9453 334.385 36.1101 334.202 35.147 334.202C34.2436 334.202 33.3913 334.368 32.5902 334.7C31.7976 335.024 31.1499 335.497 30.647 336.119C30.1442 336.733 29.8714 337.474 29.8288 338.344H26.7607C26.8118 336.972 27.2251 335.77 28.0007 334.739C28.7763 333.699 29.7905 332.889 31.0433 332.31C32.3047 331.73 33.6896 331.44 35.1982 331.44C36.8175 331.44 38.2067 331.768 39.3658 332.425C40.5249 333.072 41.4155 333.929 42.0376 334.994C42.6598 336.06 42.9709 337.21 42.9709 338.446C42.9709 339.92 42.5831 341.178 41.8075 342.217C41.0405 343.257 39.9964 343.977 38.6754 344.378V344.582C40.3288 344.855 41.62 345.558 42.549 346.692C43.478 347.817 43.9425 349.21 43.9425 350.872C43.9425 352.295 43.5547 353.574 42.7791 354.707C42.0121 355.832 40.9638 356.719 39.6342 357.366C38.3047 358.014 36.7919 358.338 35.0959 358.338Z" fill="black"/>
<path d="M26.8118 162.654V160.353L35.4538 150.893C36.468 149.785 37.3033 148.822 37.9595 148.004C38.6158 147.177 39.1016 146.402 39.4169 145.677C39.7408 144.944 39.9027 144.177 39.9027 143.376C39.9027 142.456 39.6811 141.659 39.2379 140.985C38.8033 140.312 38.2067 139.792 37.4482 139.426C36.6896 139.059 35.8374 138.876 34.8913 138.876C33.8857 138.876 33.0078 139.085 32.2578 139.502C31.5163 139.912 30.9411 140.487 30.532 141.228C30.1314 141.97 29.9311 142.839 29.9311 143.836H26.9141C26.9141 142.302 27.2678 140.956 27.9751 139.797C28.6825 138.637 29.6456 137.734 30.8643 137.086C32.0916 136.439 33.468 136.115 34.9936 136.115C36.5277 136.115 37.8871 136.439 39.0717 137.086C40.2564 137.734 41.1854 138.608 41.8587 139.707C42.532 140.806 42.8686 142.029 42.8686 143.376C42.8686 144.339 42.6939 145.281 42.3445 146.201C42.0036 147.113 41.407 148.132 40.5547 149.257C39.7109 150.373 38.5391 151.737 37.0391 153.348L31.1584 159.637V159.842H43.3288V162.654H26.8118Z" fill="black"/>
<path d="M187.735 53.0453V60.9203H185.724V47.8294H187.667V49.8748H187.837C188.144 49.2101 188.61 48.676 189.235 48.2726C189.86 47.8635 190.667 47.6589 191.656 47.6589C192.542 47.6589 193.317 47.8407 193.982 48.2044C194.647 48.5623 195.164 49.1078 195.533 49.8407C195.903 50.568 196.087 51.4885 196.087 52.6021V60.9203H194.076V52.7385C194.076 51.7101 193.809 50.9089 193.275 50.3351C192.741 49.7555 192.008 49.4657 191.076 49.4657C190.434 49.4657 189.86 49.6049 189.354 49.8834C188.854 50.1618 188.46 50.568 188.17 51.1021C187.88 51.6362 187.735 52.2839 187.735 53.0453ZM205.081 61.193C203.899 61.193 202.862 60.9118 201.97 60.3493C201.084 59.7868 200.391 58.9998 199.891 57.9885C199.396 56.9771 199.149 55.7953 199.149 54.443C199.149 53.0794 199.396 51.889 199.891 50.872C200.391 49.8549 201.084 49.0652 201.97 48.5027C202.862 47.9402 203.899 47.6589 205.081 47.6589C206.263 47.6589 207.297 47.9402 208.183 48.5027C209.075 49.0652 209.768 49.8549 210.263 50.872C210.763 51.889 211.013 53.0794 211.013 54.443C211.013 55.7953 210.763 56.9771 210.263 57.9885C209.768 58.9998 209.075 59.7868 208.183 60.3493C207.297 60.9118 206.263 61.193 205.081 61.193ZM205.081 59.3862C205.979 59.3862 206.717 59.1561 207.297 58.6959C207.876 58.2356 208.305 57.6305 208.584 56.8805C208.862 56.1305 209.001 55.318 209.001 54.443C209.001 53.568 208.862 52.7527 208.584 51.997C208.305 51.2413 207.876 50.6305 207.297 50.1646C206.717 49.6987 205.979 49.4657 205.081 49.4657C204.183 49.4657 203.445 49.6987 202.865 50.1646C202.286 50.6305 201.857 51.2413 201.578 51.997C201.3 52.7527 201.161 53.568 201.161 54.443C201.161 55.318 201.3 56.1305 201.578 56.8805C201.857 57.6305 202.286 58.2356 202.865 58.6959C203.445 59.1561 204.183 59.3862 205.081 59.3862ZM219.026 61.193C217.935 61.193 216.972 60.9174 216.137 60.3663C215.302 59.8095 214.648 59.0254 214.177 58.014C213.705 56.997 213.469 55.7953 213.469 54.4089C213.469 53.0339 213.705 51.8407 214.177 50.8294C214.648 49.818 215.305 49.0368 216.146 48.4856C216.987 47.9345 217.958 47.6589 219.06 47.6589C219.913 47.6589 220.586 47.801 221.08 48.0851C221.58 48.3635 221.961 48.6817 222.222 49.0396C222.489 49.3919 222.697 49.6817 222.844 49.9089H223.015V43.4657H225.026V60.9203H223.083V58.9089H222.844C222.697 59.1476 222.487 59.4487 222.214 59.8123C221.941 60.1703 221.552 60.4913 221.046 60.7754C220.54 61.0538 219.867 61.193 219.026 61.193ZM219.299 59.3862C220.106 59.3862 220.788 59.176 221.344 58.7555C221.901 58.3294 222.325 57.7413 222.614 56.9913C222.904 56.2356 223.049 55.3635 223.049 54.3748C223.049 53.3976 222.907 52.5424 222.623 51.8095C222.339 51.0709 221.918 50.497 221.362 50.0879C220.805 49.6731 220.117 49.4657 219.299 49.4657C218.447 49.4657 217.737 49.6845 217.168 50.122C216.606 50.5538 216.183 51.1419 215.898 51.8862C215.62 52.6248 215.481 53.4544 215.481 54.3748C215.481 55.3067 215.623 56.1532 215.907 56.9146C216.197 57.6703 216.623 58.2726 217.185 58.7214C217.754 59.1646 218.458 59.3862 219.299 59.3862ZM234.478 61.193C233.217 61.193 232.129 60.9146 231.214 60.3578C230.305 59.7953 229.603 59.0112 229.109 58.0055C228.62 56.9942 228.376 55.818 228.376 54.4771C228.376 53.1362 228.62 51.9544 229.109 50.9317C229.603 49.9032 230.29 49.1021 231.171 48.5282C232.058 47.9487 233.092 47.6589 234.273 47.6589C234.955 47.6589 235.629 47.7726 236.293 47.9998C236.958 48.2271 237.563 48.5964 238.109 49.1078C238.654 49.6135 239.089 50.2839 239.413 51.1192C239.737 51.9544 239.898 52.9828 239.898 54.2044V55.0567H229.808V53.318H237.853C237.853 52.5794 237.705 51.9203 237.41 51.3407C237.12 50.7612 236.705 50.3038 236.165 49.9686C235.631 49.6334 235.001 49.4657 234.273 49.4657C233.472 49.4657 232.779 49.6646 232.194 50.0623C231.614 50.4544 231.168 50.9657 230.856 51.5964C230.543 52.2271 230.387 52.9032 230.387 53.6248V54.7839C230.387 55.7726 230.558 56.6106 230.898 57.2981C231.245 57.9799 231.725 58.4998 232.339 58.8578C232.952 59.2101 233.665 59.3862 234.478 59.3862C235.006 59.3862 235.484 59.3123 235.91 59.1646C236.342 59.0112 236.714 58.7839 237.026 58.4828C237.339 58.176 237.58 57.7953 237.751 57.3407L239.694 57.8862C239.489 58.5453 239.146 59.1248 238.663 59.6248C238.18 60.1192 237.583 60.5055 236.873 60.7839C236.163 61.0567 235.364 61.193 234.478 61.193Z" fill="black"/>
<path d="M187.735 247.397V255.272H185.724V242.182H187.667V244.227H187.837C188.144 243.562 188.61 243.028 189.235 242.625C189.86 242.216 190.667 242.011 191.656 242.011C192.542 242.011 193.317 242.193 193.982 242.557C194.647 242.914 195.164 243.46 195.533 244.193C195.903 244.92 196.087 245.841 196.087 246.954V255.272H194.076V247.091C194.076 246.062 193.809 245.261 193.275 244.687C192.741 244.108 192.008 243.818 191.076 243.818C190.434 243.818 189.86 243.957 189.354 244.235C188.854 244.514 188.46 244.92 188.17 245.454C187.88 245.988 187.735 246.636 187.735 247.397ZM205.081 255.545C203.899 255.545 202.862 255.264 201.97 254.701C201.084 254.139 200.391 253.352 199.891 252.341C199.396 251.329 199.149 250.147 199.149 248.795C199.149 247.432 199.396 246.241 199.891 245.224C200.391 244.207 201.084 243.417 201.97 242.855C202.862 242.292 203.899 242.011 205.081 242.011C206.263 242.011 207.297 242.292 208.183 242.855C209.075 243.417 209.768 244.207 210.263 245.224C210.763 246.241 211.013 247.432 211.013 248.795C211.013 250.147 210.763 251.329 210.263 252.341C209.768 253.352 209.075 254.139 208.183 254.701C207.297 255.264 206.263 255.545 205.081 255.545ZM205.081 253.738C205.979 253.738 206.717 253.508 207.297 253.048C207.876 252.588 208.305 251.983 208.584 251.233C208.862 250.483 209.001 249.67 209.001 248.795C209.001 247.92 208.862 247.105 208.584 246.349C208.305 245.593 207.876 244.983 207.297 244.517C206.717 244.051 205.979 243.818 205.081 243.818C204.183 243.818 203.445 244.051 202.865 244.517C202.286 244.983 201.857 245.593 201.578 246.349C201.3 247.105 201.161 247.92 201.161 248.795C201.161 249.67 201.3 250.483 201.578 251.233C201.857 251.983 202.286 252.588 202.865 253.048C203.445 253.508 204.183 253.738 205.081 253.738ZM219.026 255.545C217.935 255.545 216.972 255.27 216.137 254.718C215.302 254.162 214.648 253.378 214.177 252.366C213.705 251.349 213.469 250.147 213.469 248.761C213.469 247.386 213.705 246.193 214.177 245.182C214.648 244.17 215.305 243.389 216.146 242.838C216.987 242.287 217.958 242.011 219.06 242.011C219.913 242.011 220.586 242.153 221.08 242.437C221.58 242.716 221.961 243.034 222.222 243.392C222.489 243.744 222.697 244.034 222.844 244.261H223.015V237.818H225.026V255.272H223.083V253.261H222.844C222.697 253.5 222.487 253.801 222.214 254.164C221.941 254.522 221.552 254.843 221.046 255.128C220.54 255.406 219.867 255.545 219.026 255.545ZM219.299 253.738C220.106 253.738 220.788 253.528 221.344 253.108C221.901 252.682 222.325 252.093 222.614 251.343C222.904 250.588 223.049 249.716 223.049 248.727C223.049 247.75 222.907 246.895 222.623 246.162C222.339 245.423 221.918 244.849 221.362 244.44C220.805 244.025 220.117 243.818 219.299 243.818C218.447 243.818 217.737 244.037 217.168 244.474C216.606 244.906 216.183 245.494 215.898 246.238C215.62 246.977 215.481 247.807 215.481 248.727C215.481 249.659 215.623 250.505 215.907 251.267C216.197 252.022 216.623 252.625 217.185 253.074C217.754 253.517 218.458 253.738 219.299 253.738ZM234.478 255.545C233.217 255.545 232.129 255.267 231.214 254.71C230.305 254.147 229.603 253.363 229.109 252.358C228.62 251.346 228.376 250.17 228.376 248.829C228.376 247.488 228.62 246.307 229.109 245.284C229.603 244.255 230.29 243.454 231.171 242.88C232.058 242.301 233.092 242.011 234.273 242.011C234.955 242.011 235.629 242.125 236.293 242.352C236.958 242.579 237.563 242.949 238.109 243.46C238.654 243.966 239.089 244.636 239.413 245.471C239.737 246.307 239.898 247.335 239.898 248.557V249.409H229.808V247.67H237.853C237.853 246.932 237.705 246.272 237.41 245.693C237.12 245.113 236.705 244.656 236.165 244.321C235.631 243.985 235.001 243.818 234.273 243.818C233.472 243.818 232.779 244.017 232.194 244.414C231.614 244.807 231.168 245.318 230.856 245.949C230.543 246.579 230.387 247.255 230.387 247.977V249.136C230.387 250.125 230.558 250.963 230.898 251.65C231.245 252.332 231.725 252.852 232.339 253.21C232.952 253.562 233.665 253.738 234.478 253.738C235.006 253.738 235.484 253.664 235.91 253.517C236.342 253.363 236.714 253.136 237.026 252.835C237.339 252.528 237.58 252.147 237.751 251.693L239.694 252.238C239.489 252.897 239.146 253.477 238.663 253.977C238.18 254.471 237.583 254.858 236.873 255.136C236.163 255.409 235.364 255.545 234.478 255.545Z" fill="black"/>
<path d="M187.735 150.72V158.595H185.724V145.504H187.667V147.549H187.837C188.144 146.884 188.61 146.35 189.235 145.947C189.86 145.538 190.667 145.333 191.656 145.333C192.542 145.333 193.317 145.515 193.982 145.879C194.647 146.237 195.164 146.782 195.533 147.515C195.903 148.242 196.087 149.163 196.087 150.276V158.595H194.076V150.413C194.076 149.384 193.809 148.583 193.275 148.009C192.741 147.43 192.008 147.14 191.076 147.14C190.434 147.14 189.86 147.279 189.354 147.558C188.854 147.836 188.46 148.242 188.17 148.776C187.88 149.311 187.735 149.958 187.735 150.72ZM205.081 158.867C203.899 158.867 202.862 158.586 201.97 158.024C201.084 157.461 200.391 156.674 199.891 155.663C199.396 154.651 199.149 153.47 199.149 152.117C199.149 150.754 199.396 149.563 199.891 148.546C200.391 147.529 201.084 146.74 201.97 146.177C202.862 145.615 203.899 145.333 205.081 145.333C206.263 145.333 207.297 145.615 208.183 146.177C209.075 146.74 209.768 147.529 210.263 148.546C210.763 149.563 211.013 150.754 211.013 152.117C211.013 153.47 210.763 154.651 210.263 155.663C209.768 156.674 209.075 157.461 208.183 158.024C207.297 158.586 206.263 158.867 205.081 158.867ZM205.081 157.061C205.979 157.061 206.717 156.83 207.297 156.37C207.876 155.91 208.305 155.305 208.584 154.555C208.862 153.805 209.001 152.992 209.001 152.117C209.001 151.242 208.862 150.427 208.584 149.671C208.305 148.916 207.876 148.305 207.297 147.839C206.717 147.373 205.979 147.14 205.081 147.14C204.183 147.14 203.445 147.373 202.865 147.839C202.286 148.305 201.857 148.916 201.578 149.671C201.3 150.427 201.161 151.242 201.161 152.117C201.161 152.992 201.3 153.805 201.578 154.555C201.857 155.305 202.286 155.91 202.865 156.37C203.445 156.83 204.183 157.061 205.081 157.061ZM219.026 158.867C217.935 158.867 216.972 158.592 216.137 158.041C215.302 157.484 214.648 156.7 214.177 155.688C213.705 154.671 213.469 153.47 213.469 152.083C213.469 150.708 213.705 149.515 214.177 148.504C214.648 147.492 215.305 146.711 216.146 146.16C216.987 145.609 217.958 145.333 219.06 145.333C219.913 145.333 220.586 145.475 221.08 145.759C221.58 146.038 221.961 146.356 222.222 146.714C222.489 147.066 222.697 147.356 222.844 147.583H223.015V141.14H225.026V158.595H223.083V156.583H222.844C222.697 156.822 222.487 157.123 222.214 157.487C221.941 157.845 221.552 158.166 221.046 158.45C220.54 158.728 219.867 158.867 219.026 158.867ZM219.299 157.061C220.106 157.061 220.788 156.85 221.344 156.43C221.901 156.004 222.325 155.416 222.614 154.666C222.904 153.91 223.049 153.038 223.049 152.049C223.049 151.072 222.907 150.217 222.623 149.484C222.339 148.745 221.918 148.171 221.362 147.762C220.805 147.348 220.117 147.14 219.299 147.14C218.447 147.14 217.737 147.359 217.168 147.796C216.606 148.228 216.183 148.816 215.898 149.561C215.62 150.299 215.481 151.129 215.481 152.049C215.481 152.981 215.623 153.828 215.907 154.589C216.197 155.345 216.623 155.947 217.185 156.396C217.754 156.839 218.458 157.061 219.299 157.061ZM234.478 158.867C233.217 158.867 232.129 158.589 231.214 158.032C230.305 157.47 229.603 156.686 229.109 155.68C228.62 154.669 228.376 153.492 228.376 152.151C228.376 150.811 228.62 149.629 229.109 148.606C229.603 147.578 230.29 146.776 231.171 146.203C232.058 145.623 233.092 145.333 234.273 145.333C234.955 145.333 235.629 145.447 236.293 145.674C236.958 145.901 237.563 146.271 238.109 146.782C238.654 147.288 239.089 147.958 239.413 148.794C239.737 149.629 239.898 150.657 239.898 151.879V152.731H229.808V150.992H237.853C237.853 150.254 237.705 149.595 237.41 149.015C237.12 148.436 236.705 147.978 236.165 147.643C235.631 147.308 235.001 147.14 234.273 147.14C233.472 147.14 232.779 147.339 232.194 147.737C231.614 148.129 231.168 148.64 230.856 149.271C230.543 149.901 230.387 150.578 230.387 151.299V152.458C230.387 153.447 230.558 154.285 230.898 154.973C231.245 155.654 231.725 156.174 232.339 156.532C232.952 156.884 233.665 157.061 234.478 157.061C235.006 157.061 235.484 156.987 235.91 156.839C236.342 156.686 236.714 156.458 237.026 156.157C237.339 155.85 237.58 155.47 237.751 155.015L239.694 155.561C239.489 156.22 239.146 156.799 238.663 157.299C238.18 157.794 237.583 158.18 236.873 158.458C236.163 158.731 235.364 158.867 234.478 158.867Z" fill="black"/>
<path d="M382.735 54.0419V61.9169H380.724V48.826H382.667V50.8715H382.837C383.144 50.2067 383.61 49.6726 384.235 49.2692C384.86 48.8601 385.667 48.6556 386.656 48.6556C387.542 48.6556 388.317 48.8374 388.982 49.201C389.647 49.559 390.164 50.1044 390.533 50.8374C390.903 51.5647 391.087 52.4851 391.087 53.5987V61.9169H389.076V53.7351C389.076 52.7067 388.809 51.9056 388.275 51.3317C387.741 50.7522 387.008 50.4624 386.076 50.4624C385.434 50.4624 384.86 50.6016 384.354 50.88C383.854 51.1584 383.46 51.5647 383.17 52.0987C382.88 52.6328 382.735 53.2806 382.735 54.0419ZM400.081 62.1897C398.899 62.1897 397.862 61.9084 396.97 61.3459C396.084 60.7834 395.391 59.9965 394.891 58.9851C394.396 57.9737 394.149 56.7919 394.149 55.4397C394.149 54.076 394.396 52.8857 394.891 51.8686C395.391 50.8516 396.084 50.0618 396.97 49.4993C397.862 48.9368 398.899 48.6556 400.081 48.6556C401.263 48.6556 402.297 48.9368 403.183 49.4993C404.075 50.0618 404.768 50.8516 405.263 51.8686C405.763 52.8857 406.013 54.076 406.013 55.4397C406.013 56.7919 405.763 57.9737 405.263 58.9851C404.768 59.9965 404.075 60.7834 403.183 61.3459C402.297 61.9084 401.263 62.1897 400.081 62.1897ZM400.081 60.3828C400.979 60.3828 401.717 60.1527 402.297 59.6925C402.876 59.2323 403.305 58.6272 403.584 57.8772C403.862 57.1272 404.001 56.3147 404.001 55.4397C404.001 54.5647 403.862 53.7493 403.584 52.9936C403.305 52.238 402.876 51.6272 402.297 51.1612C401.717 50.6953 400.979 50.4624 400.081 50.4624C399.183 50.4624 398.445 50.6953 397.865 51.1612C397.286 51.6272 396.857 52.238 396.578 52.9936C396.3 53.7493 396.161 54.5647 396.161 55.4397C396.161 56.3147 396.3 57.1272 396.578 57.8772C396.857 58.6272 397.286 59.2323 397.865 59.6925C398.445 60.1527 399.183 60.3828 400.081 60.3828ZM414.026 62.1897C412.935 62.1897 411.972 61.9141 411.137 61.363C410.302 60.8061 409.648 60.022 409.177 59.0107C408.705 57.9936 408.469 56.7919 408.469 55.4056C408.469 54.0306 408.705 52.8374 409.177 51.826C409.648 50.8147 410.305 50.0334 411.146 49.4823C411.987 48.9311 412.958 48.6556 414.06 48.6556C414.913 48.6556 415.586 48.7976 416.08 49.0817C416.58 49.3601 416.961 49.6783 417.222 50.0362C417.489 50.3885 417.697 50.6783 417.844 50.9056H418.015V44.4624H420.026V61.9169H418.083V59.9056H417.844C417.697 60.1442 417.487 60.4453 417.214 60.809C416.941 61.1669 416.552 61.488 416.046 61.772C415.54 62.0505 414.867 62.1897 414.026 62.1897ZM414.299 60.3828C415.106 60.3828 415.788 60.1726 416.344 59.7522C416.901 59.326 417.325 58.738 417.614 57.988C417.904 57.2323 418.049 56.3601 418.049 55.3715C418.049 54.3942 417.907 53.5391 417.623 52.8061C417.339 52.0675 416.918 51.4936 416.362 51.0845C415.805 50.6698 415.117 50.4624 414.299 50.4624C413.447 50.4624 412.737 50.6811 412.168 51.1186C411.606 51.5505 411.183 52.1385 410.898 52.8828C410.62 53.6215 410.481 54.451 410.481 55.3715C410.481 56.3033 410.623 57.1499 410.907 57.9112C411.197 58.6669 411.623 59.2692 412.185 59.7181C412.754 60.1612 413.458 60.3828 414.299 60.3828ZM429.478 62.1897C428.217 62.1897 427.129 61.9112 426.214 61.3544C425.305 60.7919 424.603 60.0078 424.109 59.0022C423.62 57.9908 423.376 56.8147 423.376 55.4737C423.376 54.1328 423.62 52.951 424.109 51.9283C424.603 50.8999 425.29 50.0987 426.171 49.5249C427.058 48.9453 428.092 48.6556 429.273 48.6556C429.955 48.6556 430.629 48.7692 431.293 48.9965C431.958 49.2237 432.563 49.5931 433.109 50.1044C433.654 50.6101 434.089 51.2806 434.413 52.1158C434.737 52.951 434.898 53.9794 434.898 55.201V56.0533H424.808V54.3147H432.853C432.853 53.576 432.705 52.9169 432.41 52.3374C432.12 51.7578 431.705 51.3005 431.165 50.9652C430.631 50.63 430.001 50.4624 429.273 50.4624C428.472 50.4624 427.779 50.6612 427.194 51.059C426.614 51.451 426.168 51.9624 425.856 52.5931C425.543 53.2237 425.387 53.8999 425.387 54.6215V55.7806C425.387 56.7692 425.558 57.6073 425.898 58.2948C426.245 58.9766 426.725 59.4965 427.339 59.8544C427.952 60.2067 428.665 60.3828 429.478 60.3828C430.006 60.3828 430.484 60.309 430.91 60.1612C431.342 60.0078 431.714 59.7806 432.026 59.4794C432.339 59.1726 432.58 58.7919 432.751 58.3374L434.694 58.8828C434.489 59.5419 434.146 60.1215 433.663 60.6215C433.18 61.1158 432.583 61.5022 431.873 61.7806C431.163 62.0533 430.364 62.1897 429.478 62.1897Z" fill="black"/>
<path d="M148.994 345.113C148.931 345.662 148.436 346.056 147.887 345.994L138.945 344.977C138.396 344.915 138.002 344.42 138.064 343.871C138.126 343.322 138.622 342.928 139.17 342.99L147.119 343.893L148.023 335.945C148.085 335.396 148.58 335.002 149.129 335.064C149.678 335.126 150.072 335.622 150.01 336.17L148.994 345.113ZM70.7824 246.377L148.782 344.377L147.218 345.623L69.2176 247.623L70.7824 246.377Z" fill="black"/>
<path d="M152.923 149.614C152.71 149.105 152.124 148.864 151.614 149.077L143.311 152.55C142.801 152.763 142.561 153.349 142.774 153.858C142.987 154.368 143.573 154.608 144.083 154.395L151.463 151.308L154.55 158.689C154.763 159.199 155.349 159.439 155.858 159.226C156.368 159.013 156.608 158.427 156.395 157.917L152.923 149.614ZM72.9252 345.38L152.925 150.38L151.075 149.62L71.0748 344.62L72.9252 345.38Z" fill="black"/>
<path d="M147.607 246.92C148.115 247.137 148.703 246.901 148.92 246.393L152.453 238.115C152.67 237.607 152.434 237.02 151.926 236.803C151.418 236.586 150.83 236.822 150.613 237.33L147.473 244.688L140.115 241.547C139.607 241.33 139.02 241.566 138.803 242.074C138.586 242.582 138.822 243.17 139.33 243.387L147.607 246.92ZM69.0721 52.2L147.072 246.373L148.928 245.627L70.9279 51.4545L69.0721 52.2Z" fill="black"/>
<path d="M353.707 52.5344C354.098 52.1439 354.098 51.5107 353.707 51.1202L347.343 44.7562C346.953 44.3657 346.319 44.3657 345.929 44.7562C345.538 45.1467 345.538 45.7799 345.929 46.1704L351.586 51.8273L345.929 57.4841C345.538 57.8746 345.538 58.5078 345.929 58.8983C346.319 59.2889 346.953 59.2889 347.343 58.8983L353.707 52.5344ZM265 52.8273H353V50.8273H265V52.8273Z" fill="black"/>
<rect x="163" y="376.767" width="63.7674" height="99" transform="rotate(-90 163 376.767)" stroke="#ED8E00" stroke-width="6"/>
<rect x="358" y="376.767" width="63.7674" height="99" transform="rotate(-90 358 376.767)" stroke="#ED8E00" stroke-width="6"/>
<path d="M187.735 345.105V352.98H185.724V339.889H187.667V341.935H187.837C188.144 341.27 188.61 340.736 189.235 340.332C189.86 339.923 190.667 339.719 191.656 339.719C192.542 339.719 193.317 339.901 193.982 340.264C194.647 340.622 195.164 341.168 195.533 341.901C195.903 342.628 196.087 343.548 196.087 344.662V352.98H194.076V344.798C194.076 343.77 193.809 342.969 193.275 342.395C192.741 341.815 192.008 341.526 191.076 341.526C190.434 341.526 189.86 341.665 189.354 341.943C188.854 342.222 188.46 342.628 188.17 343.162C187.88 343.696 187.735 344.344 187.735 345.105ZM205.081 353.253C203.899 353.253 202.862 352.972 201.97 352.409C201.084 351.847 200.391 351.06 199.891 350.048C199.396 349.037 199.149 347.855 199.149 346.503C199.149 345.139 199.396 343.949 199.891 342.932C200.391 341.915 201.084 341.125 201.97 340.562C202.862 340 203.899 339.719 205.081 339.719C206.263 339.719 207.297 340 208.183 340.562C209.075 341.125 209.768 341.915 210.263 342.932C210.763 343.949 211.013 345.139 211.013 346.503C211.013 347.855 210.763 349.037 210.263 350.048C209.768 351.06 209.075 351.847 208.183 352.409C207.297 352.972 206.263 353.253 205.081 353.253ZM205.081 351.446C205.979 351.446 206.717 351.216 207.297 350.756C207.876 350.295 208.305 349.69 208.584 348.94C208.862 348.19 209.001 347.378 209.001 346.503C209.001 345.628 208.862 344.812 208.584 344.057C208.305 343.301 207.876 342.69 207.297 342.224C206.717 341.759 205.979 341.526 205.081 341.526C204.183 341.526 203.445 341.759 202.865 342.224C202.286 342.69 201.857 343.301 201.578 344.057C201.3 344.812 201.161 345.628 201.161 346.503C201.161 347.378 201.3 348.19 201.578 348.94C201.857 349.69 202.286 350.295 202.865 350.756C203.445 351.216 204.183 351.446 205.081 351.446ZM219.026 353.253C217.935 353.253 216.972 352.977 216.137 352.426C215.302 351.869 214.648 351.085 214.177 350.074C213.705 349.057 213.469 347.855 213.469 346.469C213.469 345.094 213.705 343.901 214.177 342.889C214.648 341.878 215.305 341.097 216.146 340.545C216.987 339.994 217.958 339.719 219.06 339.719C219.913 339.719 220.586 339.861 221.08 340.145C221.58 340.423 221.961 340.741 222.222 341.099C222.489 341.452 222.697 341.741 222.844 341.969H223.015V335.526H225.026V352.98H223.083V350.969H222.844C222.697 351.207 222.487 351.509 222.214 351.872C221.941 352.23 221.552 352.551 221.046 352.835C220.54 353.114 219.867 353.253 219.026 353.253ZM219.299 351.446C220.106 351.446 220.788 351.236 221.344 350.815C221.901 350.389 222.325 349.801 222.614 349.051C222.904 348.295 223.049 347.423 223.049 346.435C223.049 345.457 222.907 344.602 222.623 343.869C222.339 343.131 221.918 342.557 221.362 342.148C220.805 341.733 220.117 341.526 219.299 341.526C218.447 341.526 217.737 341.744 217.168 342.182C216.606 342.614 216.183 343.202 215.898 343.946C215.62 344.685 215.481 345.514 215.481 346.435C215.481 347.366 215.623 348.213 215.907 348.974C216.197 349.73 216.623 350.332 217.185 350.781C217.754 351.224 218.458 351.446 219.299 351.446ZM234.478 353.253C233.217 353.253 232.129 352.974 231.214 352.418C230.305 351.855 229.603 351.071 229.109 350.065C228.62 349.054 228.376 347.878 228.376 346.537C228.376 345.196 228.62 344.014 229.109 342.991C229.603 341.963 230.29 341.162 231.171 340.588C232.058 340.009 233.092 339.719 234.273 339.719C234.955 339.719 235.629 339.832 236.293 340.06C236.958 340.287 237.563 340.656 238.109 341.168C238.654 341.673 239.089 342.344 239.413 343.179C239.737 344.014 239.898 345.043 239.898 346.264V347.116H229.808V345.378H237.853C237.853 344.639 237.705 343.98 237.41 343.401C237.12 342.821 236.705 342.364 236.165 342.028C235.631 341.693 235.001 341.526 234.273 341.526C233.472 341.526 232.779 341.724 232.194 342.122C231.614 342.514 231.168 343.026 230.856 343.656C230.543 344.287 230.387 344.963 230.387 345.685V346.844C230.387 347.832 230.558 348.67 230.898 349.358C231.245 350.04 231.725 350.56 232.339 350.918C232.952 351.27 233.665 351.446 234.478 351.446C235.006 351.446 235.484 351.372 235.91 351.224C236.342 351.071 236.714 350.844 237.026 350.543C237.339 350.236 237.58 349.855 237.751 349.401L239.694 349.946C239.489 350.605 239.146 351.185 238.663 351.685C238.18 352.179 237.583 352.565 236.873 352.844C236.163 353.116 235.364 353.253 234.478 353.253Z" fill="black"/>
<path d="M382.735 346.102V353.977H380.724V340.886H382.667V342.931H382.837C383.144 342.267 383.61 341.732 384.235 341.329C384.86 340.92 385.667 340.715 386.656 340.715C387.542 340.715 388.317 340.897 388.982 341.261C389.647 341.619 390.164 342.164 390.533 342.897C390.903 343.624 391.087 344.545 391.087 345.659V353.977H389.076V345.795C389.076 344.767 388.809 343.965 388.275 343.392C387.741 342.812 387.008 342.522 386.076 342.522C385.434 342.522 384.86 342.661 384.354 342.94C383.854 343.218 383.46 343.624 383.17 344.159C382.88 344.693 382.735 345.34 382.735 346.102ZM400.081 354.249C398.899 354.249 397.862 353.968 396.97 353.406C396.084 352.843 395.391 352.056 394.891 351.045C394.396 350.034 394.149 348.852 394.149 347.499C394.149 346.136 394.396 344.945 394.891 343.928C395.391 342.911 396.084 342.122 396.97 341.559C397.862 340.997 398.899 340.715 400.081 340.715C401.263 340.715 402.297 340.997 403.183 341.559C404.075 342.122 404.768 342.911 405.263 343.928C405.763 344.945 406.013 346.136 406.013 347.499C406.013 348.852 405.763 350.034 405.263 351.045C404.768 352.056 404.075 352.843 403.183 353.406C402.297 353.968 401.263 354.249 400.081 354.249ZM400.081 352.443C400.979 352.443 401.717 352.213 402.297 351.752C402.876 351.292 403.305 350.687 403.584 349.937C403.862 349.187 404.001 348.374 404.001 347.499C404.001 346.624 403.862 345.809 403.584 345.053C403.305 344.298 402.876 343.687 402.297 343.221C401.717 342.755 400.979 342.522 400.081 342.522C399.183 342.522 398.445 342.755 397.865 343.221C397.286 343.687 396.857 344.298 396.578 345.053C396.3 345.809 396.161 346.624 396.161 347.499C396.161 348.374 396.3 349.187 396.578 349.937C396.857 350.687 397.286 351.292 397.865 351.752C398.445 352.213 399.183 352.443 400.081 352.443ZM414.026 354.249C412.935 354.249 411.972 353.974 411.137 353.423C410.302 352.866 409.648 352.082 409.177 351.07C408.705 350.053 408.469 348.852 408.469 347.465C408.469 346.09 408.705 344.897 409.177 343.886C409.648 342.874 410.305 342.093 411.146 341.542C411.987 340.991 412.958 340.715 414.06 340.715C414.913 340.715 415.586 340.857 416.08 341.142C416.58 341.42 416.961 341.738 417.222 342.096C417.489 342.448 417.697 342.738 417.844 342.965H418.015V336.522H420.026V353.977H418.083V351.965H417.844C417.697 352.204 417.487 352.505 417.214 352.869C416.941 353.227 416.552 353.548 416.046 353.832C415.54 354.11 414.867 354.249 414.026 354.249ZM414.299 352.443C415.106 352.443 415.788 352.232 416.344 351.812C416.901 351.386 417.325 350.798 417.614 350.048C417.904 349.292 418.049 348.42 418.049 347.431C418.049 346.454 417.907 345.599 417.623 344.866C417.339 344.127 416.918 343.553 416.362 343.144C415.805 342.73 415.117 342.522 414.299 342.522C413.447 342.522 412.737 342.741 412.168 343.178C411.606 343.61 411.183 344.198 410.898 344.943C410.62 345.681 410.481 346.511 410.481 347.431C410.481 348.363 410.623 349.21 410.907 349.971C411.197 350.727 411.623 351.329 412.185 351.778C412.754 352.221 413.458 352.443 414.299 352.443ZM429.478 354.249C428.217 354.249 427.129 353.971 426.214 353.414C425.305 352.852 424.603 352.068 424.109 351.062C423.62 350.051 423.376 348.874 423.376 347.534C423.376 346.193 423.62 345.011 424.109 343.988C424.603 342.96 425.29 342.159 426.171 341.585C427.058 341.005 428.092 340.715 429.273 340.715C429.955 340.715 430.629 340.829 431.293 341.056C431.958 341.284 432.563 341.653 433.109 342.164C433.654 342.67 434.089 343.34 434.413 344.176C434.737 345.011 434.898 346.039 434.898 347.261V348.113H424.808V346.374H432.853C432.853 345.636 432.705 344.977 432.41 344.397C432.12 343.818 431.705 343.36 431.165 343.025C430.631 342.69 430.001 342.522 429.273 342.522C428.472 342.522 427.779 342.721 427.194 343.119C426.614 343.511 426.168 344.022 425.856 344.653C425.543 345.284 425.387 345.96 425.387 346.681V347.84C425.387 348.829 425.558 349.667 425.898 350.355C426.245 351.036 426.725 351.556 427.339 351.914C427.952 352.267 428.665 352.443 429.478 352.443C430.006 352.443 430.484 352.369 430.91 352.221C431.342 352.068 431.714 351.84 432.026 351.539C432.339 351.232 432.58 350.852 432.751 350.397L434.694 350.943C434.489 351.602 434.146 352.181 433.663 352.681C433.18 353.176 432.583 353.562 431.873 353.84C431.163 354.113 430.364 354.249 429.478 354.249Z" fill="black"/>
<path d="M353.707 344.594C354.098 344.204 354.098 343.571 353.707 343.18L347.343 336.816C346.953 336.425 346.319 336.425 345.929 336.816C345.538 337.207 345.538 337.84 345.929 338.23L351.586 343.887L345.929 349.544C345.538 349.934 345.538 350.568 345.929 350.958C346.319 351.349 346.953 351.349 347.343 350.958L353.707 344.594ZM265 344.887H353V342.887H265V344.887Z" fill="black"/>
<rect x="358" y="279.06" width="63.7674" height="99" transform="rotate(-90 358 279.06)" stroke="#ED8E00" stroke-width="6"/>
<path d="M382.735 248.394V256.269H380.724V243.178H382.667V245.224H382.837C383.144 244.559 383.61 244.025 384.235 243.621C384.86 243.212 385.667 243.008 386.656 243.008C387.542 243.008 388.317 243.19 388.982 243.553C389.647 243.911 390.164 244.457 390.533 245.19C390.903 245.917 391.087 246.837 391.087 247.951V256.269H389.076V248.087C389.076 247.059 388.809 246.258 388.275 245.684C387.741 245.104 387.008 244.815 386.076 244.815C385.434 244.815 384.86 244.954 384.354 245.232C383.854 245.511 383.46 245.917 383.17 246.451C382.88 246.985 382.735 247.633 382.735 248.394ZM400.081 256.542C398.899 256.542 397.862 256.261 396.97 255.698C396.084 255.136 395.391 254.349 394.891 253.337C394.396 252.326 394.149 251.144 394.149 249.792C394.149 248.428 394.396 247.238 394.891 246.221C395.391 245.204 396.084 244.414 396.97 243.851C397.862 243.289 398.899 243.008 400.081 243.008C401.263 243.008 402.297 243.289 403.183 243.851C404.075 244.414 404.768 245.204 405.263 246.221C405.763 247.238 406.013 248.428 406.013 249.792C406.013 251.144 405.763 252.326 405.263 253.337C404.768 254.349 404.075 255.136 403.183 255.698C402.297 256.261 401.263 256.542 400.081 256.542ZM400.081 254.735C400.979 254.735 401.717 254.505 402.297 254.045C402.876 253.584 403.305 252.979 403.584 252.229C403.862 251.479 404.001 250.667 404.001 249.792C404.001 248.917 403.862 248.101 403.584 247.346C403.305 246.59 402.876 245.979 402.297 245.513C401.717 245.048 400.979 244.815 400.081 244.815C399.183 244.815 398.445 245.048 397.865 245.513C397.286 245.979 396.857 246.59 396.578 247.346C396.3 248.101 396.161 248.917 396.161 249.792C396.161 250.667 396.3 251.479 396.578 252.229C396.857 252.979 397.286 253.584 397.865 254.045C398.445 254.505 399.183 254.735 400.081 254.735ZM414.026 256.542C412.935 256.542 411.972 256.266 411.137 255.715C410.302 255.158 409.648 254.374 409.177 253.363C408.705 252.346 408.469 251.144 408.469 249.758C408.469 248.383 408.705 247.19 409.177 246.178C409.648 245.167 410.305 244.386 411.146 243.834C411.987 243.283 412.958 243.008 414.06 243.008C414.913 243.008 415.586 243.15 416.08 243.434C416.58 243.712 416.961 244.03 417.222 244.388C417.489 244.741 417.697 245.03 417.844 245.258H418.015V238.815H420.026V256.269H418.083V254.258H417.844C417.697 254.496 417.487 254.798 417.214 255.161C416.941 255.519 416.552 255.84 416.046 256.124C415.54 256.403 414.867 256.542 414.026 256.542ZM414.299 254.735C415.106 254.735 415.788 254.525 416.344 254.104C416.901 253.678 417.325 253.09 417.614 252.34C417.904 251.584 418.049 250.712 418.049 249.724C418.049 248.746 417.907 247.891 417.623 247.158C417.339 246.42 416.918 245.846 416.362 245.437C415.805 245.022 415.117 244.815 414.299 244.815C413.447 244.815 412.737 245.033 412.168 245.471C411.606 245.903 411.183 246.491 410.898 247.235C410.62 247.974 410.481 248.803 410.481 249.724C410.481 250.655 410.623 251.502 410.907 252.263C411.197 253.019 411.623 253.621 412.185 254.07C412.754 254.513 413.458 254.735 414.299 254.735ZM429.478 256.542C428.217 256.542 427.129 256.263 426.214 255.707C425.305 255.144 424.603 254.36 424.109 253.354C423.62 252.343 423.376 251.167 423.376 249.826C423.376 248.485 423.62 247.303 424.109 246.28C424.603 245.252 425.29 244.451 426.171 243.877C427.058 243.298 428.092 243.008 429.273 243.008C429.955 243.008 430.629 243.121 431.293 243.349C431.958 243.576 432.563 243.945 433.109 244.457C433.654 244.962 434.089 245.633 434.413 246.468C434.737 247.303 434.898 248.332 434.898 249.553V250.405H424.808V248.667H432.853C432.853 247.928 432.705 247.269 432.41 246.69C432.12 246.11 431.705 245.653 431.165 245.317C430.631 244.982 430.001 244.815 429.273 244.815C428.472 244.815 427.779 245.013 427.194 245.411C426.614 245.803 426.168 246.315 425.856 246.945C425.543 247.576 425.387 248.252 425.387 248.974V250.133C425.387 251.121 425.558 251.959 425.898 252.647C426.245 253.329 426.725 253.849 427.339 254.207C427.952 254.559 428.665 254.735 429.478 254.735C430.006 254.735 430.484 254.661 430.91 254.513C431.342 254.36 431.714 254.133 432.026 253.832C432.339 253.525 432.58 253.144 432.751 252.69L434.694 253.235C434.489 253.894 434.146 254.474 433.663 254.974C433.18 255.468 432.583 255.854 431.873 256.133C431.163 256.405 430.364 256.542 429.478 256.542Z" fill="black"/>
<path d="M353.707 246.886C354.098 246.496 354.098 245.863 353.707 245.472L347.343 239.108C346.953 238.718 346.319 238.718 345.929 239.108C345.538 239.499 345.538 240.132 345.929 240.523L351.586 246.179L345.929 251.836C345.538 252.227 345.538 252.86 345.929 253.25C346.319 253.641 346.953 253.641 347.343 253.25L353.707 246.886ZM265 247.179H353V245.179H265V247.179Z" fill="black"/>
<rect x="553" y="279.06" width="63.7674" height="99" transform="rotate(-90 553 279.06)" stroke="#ED8E00" stroke-width="6"/>
<path d="M577.735 248.394V256.269H575.724V243.178H577.667V245.224H577.837C578.144 244.559 578.61 244.025 579.235 243.621C579.86 243.212 580.667 243.008 581.656 243.008C582.542 243.008 583.317 243.19 583.982 243.553C584.647 243.911 585.164 244.457 585.533 245.19C585.903 245.917 586.087 246.837 586.087 247.951V256.269H584.076V248.087C584.076 247.059 583.809 246.258 583.275 245.684C582.741 245.104 582.008 244.815 581.076 244.815C580.434 244.815 579.86 244.954 579.354 245.232C578.854 245.511 578.46 245.917 578.17 246.451C577.88 246.985 577.735 247.633 577.735 248.394ZM595.081 256.542C593.899 256.542 592.862 256.261 591.97 255.698C591.084 255.136 590.391 254.349 589.891 253.337C589.396 252.326 589.149 251.144 589.149 249.792C589.149 248.428 589.396 247.238 589.891 246.221C590.391 245.204 591.084 244.414 591.97 243.851C592.862 243.289 593.899 243.008 595.081 243.008C596.263 243.008 597.297 243.289 598.183 243.851C599.075 244.414 599.768 245.204 600.263 246.221C600.763 247.238 601.013 248.428 601.013 249.792C601.013 251.144 600.763 252.326 600.263 253.337C599.768 254.349 599.075 255.136 598.183 255.698C597.297 256.261 596.263 256.542 595.081 256.542ZM595.081 254.735C595.979 254.735 596.717 254.505 597.297 254.045C597.876 253.584 598.305 252.979 598.584 252.229C598.862 251.479 599.001 250.667 599.001 249.792C599.001 248.917 598.862 248.101 598.584 247.346C598.305 246.59 597.876 245.979 597.297 245.513C596.717 245.048 595.979 244.815 595.081 244.815C594.183 244.815 593.445 245.048 592.865 245.513C592.286 245.979 591.857 246.59 591.578 247.346C591.3 248.101 591.161 248.917 591.161 249.792C591.161 250.667 591.3 251.479 591.578 252.229C591.857 252.979 592.286 253.584 592.865 254.045C593.445 254.505 594.183 254.735 595.081 254.735ZM609.026 256.542C607.935 256.542 606.972 256.266 606.137 255.715C605.302 255.158 604.648 254.374 604.177 253.363C603.705 252.346 603.469 251.144 603.469 249.758C603.469 248.383 603.705 247.19 604.177 246.178C604.648 245.167 605.305 244.386 606.146 243.834C606.987 243.283 607.958 243.008 609.06 243.008C609.913 243.008 610.586 243.15 611.08 243.434C611.58 243.712 611.961 244.03 612.222 244.388C612.489 244.741 612.697 245.03 612.844 245.258H613.015V238.815H615.026V256.269H613.083V254.258H612.844C612.697 254.496 612.487 254.798 612.214 255.161C611.941 255.519 611.552 255.84 611.046 256.124C610.54 256.403 609.867 256.542 609.026 256.542ZM609.299 254.735C610.106 254.735 610.788 254.525 611.344 254.104C611.901 253.678 612.325 253.09 612.614 252.34C612.904 251.584 613.049 250.712 613.049 249.724C613.049 248.746 612.907 247.891 612.623 247.158C612.339 246.42 611.918 245.846 611.362 245.437C610.805 245.022 610.117 244.815 609.299 244.815C608.447 244.815 607.737 245.033 607.168 245.471C606.606 245.903 606.183 246.491 605.898 247.235C605.62 247.974 605.481 248.803 605.481 249.724C605.481 250.655 605.623 251.502 605.907 252.263C606.197 253.019 606.623 253.621 607.185 254.07C607.754 254.513 608.458 254.735 609.299 254.735ZM624.478 256.542C623.217 256.542 622.129 256.263 621.214 255.707C620.305 255.144 619.603 254.36 619.109 253.354C618.62 252.343 618.376 251.167 618.376 249.826C618.376 248.485 618.62 247.303 619.109 246.28C619.603 245.252 620.29 244.451 621.171 243.877C622.058 243.298 623.092 243.008 624.273 243.008C624.955 243.008 625.629 243.121 626.293 243.349C626.958 243.576 627.563 243.945 628.109 244.457C628.654 244.962 629.089 245.633 629.413 246.468C629.737 247.303 629.898 248.332 629.898 249.553V250.405H619.808V248.667H627.853C627.853 247.928 627.705 247.269 627.41 246.69C627.12 246.11 626.705 245.653 626.165 245.317C625.631 244.982 625.001 244.815 624.273 244.815C623.472 244.815 622.779 245.013 622.194 245.411C621.614 245.803 621.168 246.315 620.856 246.945C620.543 247.576 620.387 248.252 620.387 248.974V250.133C620.387 251.121 620.558 251.959 620.898 252.647C621.245 253.329 621.725 253.849 622.339 254.207C622.952 254.559 623.665 254.735 624.478 254.735C625.006 254.735 625.484 254.661 625.91 254.513C626.342 254.36 626.714 254.133 627.026 253.832C627.339 253.525 627.58 253.144 627.751 252.69L629.694 253.235C629.489 253.894 629.146 254.474 628.663 254.974C628.18 255.468 627.583 255.854 626.873 256.133C626.163 256.405 625.364 256.542 624.478 256.542Z" fill="black"/>
<path d="M548.707 246.886C549.098 246.496 549.098 245.863 548.707 245.472L542.343 239.108C541.953 238.718 541.319 238.718 540.929 239.108C540.538 239.499 540.538 240.132 540.929 240.523L546.586 246.179L540.929 251.836C540.538 252.227 540.538 252.86 540.929 253.25C541.319 253.641 541.953 253.641 542.343 253.25L548.707 246.886ZM460 247.179H548V245.179H460V247.179Z" fill="black"/>
<path d="M152.997 52.919C152.952 52.3686 152.469 51.9586 151.919 52.0033L142.949 52.7321C142.398 52.7768 141.988 53.2593 142.033 53.8097C142.078 54.3602 142.56 54.7702 143.111 54.7255L151.084 54.0777L151.732 62.0514C151.777 62.6019 152.259 63.0119 152.81 62.9672C153.36 62.9224 153.77 62.4399 153.725 61.8895L152.997 52.919ZM70.762 150.149L152.762 53.6475L151.238 52.3525L69.238 148.854L70.762 150.149Z" fill="black"/>
</svg>
