<svg width="312" height="259" viewBox="0 0 312 259" fill="none" xmlns="http://www.w3.org/2000/svg">
<line x1="82.04" y1="57.36" x2="59" y2="57.36" stroke="#ED8E00" stroke-width="0.96"/>
<line x1="82.04" y1="35.28" x2="59" y2="35.28" stroke="#ED8E00" stroke-width="0.96"/>
<line x1="82.04" y1="77.52" x2="59" y2="77.52" stroke="#ED8E00" stroke-width="0.96"/>
<line x1="90.0594" y1="39.2606" x2="107.339" y2="56.5406" stroke="#ED8E00" stroke-width="0.96"/>
<line x1="107" y1="56.4" x2="118.52" y2="56.4" stroke="#ED8E00" stroke-width="0.96"/>
<line x1="90.0594" y1="60.3806" x2="103.499" y2="73.8206" stroke="#ED8E00" stroke-width="0.96"/>
<path d="M89.9576 81.4117L119.48 110.64" stroke="#ED8E00" stroke-width="0.96"/>
<line x1="123.416" y1="94.217" x2="140.045" y2="110.846" stroke="#ED8E00" stroke-width="0.96"/>
<line x1="127.499" y1="60.3806" x2="139.019" y2="71.9006" stroke="#ED8E00" stroke-width="0.96"/>
<line x1="155" y1="74.2425" x2="148.28" y2="74.2425" stroke="#ED8E00" stroke-width="0.96"/>
<line x1="155" y1="113.603" x2="148.28" y2="113.603" stroke="#ED8E00" stroke-width="0.96"/>
<line x1="155" y1="92.4825" x2="148.28" y2="92.4825" stroke="#ED8E00" stroke-width="0.96"/>
<line x1="82.04" y1="57.36" x2="59" y2="57.36" stroke="#ED8E00" stroke-width="0.96"/>
<line x1="82.04" y1="35.28" x2="59" y2="35.28" stroke="#ED8E00" stroke-width="0.96"/>
<line x1="82.04" y1="77.52" x2="59" y2="77.52" stroke="#ED8E00" stroke-width="0.96"/>
<line x1="90.0594" y1="39.2606" x2="107.339" y2="56.5406" stroke="#ED8E00" stroke-width="0.96"/>
<line x1="107" y1="56.4" x2="118.52" y2="56.4" stroke="#ED8E00" stroke-width="0.96"/>
<line x1="90.0594" y1="60.3806" x2="103.499" y2="73.8206" stroke="#ED8E00" stroke-width="0.96"/>
<path d="M89.9576 81.9645L120.263 111.423" stroke="#ED8E00" stroke-width="0.96"/>
<path d="M126.996 59.852L139.019 71.9006" stroke="#ED8E00" stroke-width="0.96"/>
<path d="M155 74.2425L148.003 74.2425" stroke="#ED8E00" stroke-width="0.96"/>
<line x1="155" y1="113.603" x2="147.172" y2="113.603" stroke="#ED8E00" stroke-width="0.96"/>
<line x1="155" y1="92.4825" x2="147.172" y2="92.4825" stroke="#ED8E00" stroke-width="0.96"/>
<circle cx="87.32" cy="35.28" r="4.17437" stroke="#ED8E00" stroke-width="2.21126"/>
<circle cx="123.8" cy="56.4" r="4.17437" stroke="#ED8E00" stroke-width="2.21126"/>
<circle cx="143" cy="74.64" r="4.17437" stroke="#ED8E00" stroke-width="2.21126"/>
<circle cx="143" cy="92.88" r="4.17437" stroke="#ED8E00" stroke-width="2.21126"/>
<circle cx="119.96" cy="90.96" r="4.17437" stroke="#ED8E00" stroke-width="2.21126"/>
<circle cx="143" cy="114" r="4.17437" stroke="#ED8E00" stroke-width="2.21126"/>
<circle cx="123.8" cy="114" r="4.17437" stroke="#ED8E00" stroke-width="2.21126"/>
<circle cx="106.52" cy="77.52" r="4.17437" stroke="#ED8E00" stroke-width="2.21126"/>
<circle cx="87.32" cy="77.52" r="4.17437" stroke="#ED8E00" stroke-width="2.21126"/>
<circle cx="87.32" cy="56.4" r="4.17437" stroke="#ED8E00" stroke-width="2.21126"/>
<path d="M223.447 0L155 71.3709V117.156H164.839V108.179L223.875 46.234V259H312V0H223.447Z" fill="#34A5FA"/>
<path d="M0 259V0H87V21.5459H66.9559V98.3033H87V259H0Z" fill="#34A5FA"/>
</svg>
